<svg width="500" height="500" viewBox="0 0 500 500" fill="none" xmlns="http://www.w3.org/2000/svg">
<path d="M409 109.49L406.9 106.04C389.26 77 357.35 59.41 323.7 61.54C319.369 61.8097 315.064 62.4013 310.82 63.31C280.22 69.86 253.6 92.99 242.57 122.62C236.08 140.05 234.27 160.11 221.95 173.94C205.95 191.94 178.71 192.51 154.79 191.77C130.87 191.03 103.64 191.66 87.6901 209.77C77.6901 221.09 74.5301 237.18 75.3401 252.34C77.4701 292.47 105.43 328.34 140.99 346.19C176.55 364.04 218.43 365.62 257.35 357.77C311.87 346.77 363.72 316.6 394.89 269.98C426.06 223.36 433.94 159.81 409 109.49Z" fill="#F2F0F0"/>
<path d="M486.28 473.42C486.28 473.56 380.48 473.68 250.01 473.68C119.54 473.68 13.72 473.56 13.72 473.42C13.72 473.28 119.49 473.16 250.01 473.16C380.53 473.16 486.28 473.27 486.28 473.42Z" fill="#263238"/>
<path d="M324.04 375.2H168.49V474.03H324.04V375.2Z" fill="#455A64"/>
<path d="M320.57 372.37H164.62C155.231 372.37 147.62 379.981 147.62 389.37V390.06C147.62 399.449 155.231 407.06 164.62 407.06H320.57C329.959 407.06 337.57 399.449 337.57 390.06V389.37C337.57 379.981 329.959 372.37 320.57 372.37Z" fill="#455A64"/>
<path d="M324.25 406.59C324.25 406.72 287.91 406.83 243.1 406.83C198.29 406.83 161.94 406.72 161.94 406.59C161.94 406.46 198.27 406.35 243.1 406.35C287.93 406.35 324.25 406.45 324.25 406.59Z" fill="#263238"/>
<path d="M189.27 474.82C189.13 474.82 189.02 459.75 189.02 441.17C189.02 422.59 189.13 407.52 189.27 407.52C189.41 407.52 189.51 422.59 189.51 441.17C189.51 459.75 189.4 474.82 189.27 474.82Z" fill="#263238"/>
<path d="M287.59 393.06C287.334 392.223 287.13 391.372 286.98 390.51C286.5 388.453 285.83 386.444 284.98 384.51C284.122 382.589 283.094 380.749 281.91 379.01C281.37 378.317 280.873 377.593 280.42 376.84C281.092 377.429 281.687 378.101 282.19 378.84C284.763 382.26 286.518 386.225 287.32 390.43C287.522 391.291 287.613 392.175 287.59 393.06Z" fill="#263238"/>
<path d="M295.94 387.88C295.86 387.88 295.52 386.88 294.69 385.39C292.506 381.453 289.004 378.411 284.8 376.8C283.19 376.18 282.14 375.99 282.15 375.9C282.405 375.881 282.662 375.905 282.91 375.97C283.589 376.082 284.258 376.25 284.91 376.47C289.301 377.939 292.929 381.089 295 385.23C295.313 385.844 295.574 386.482 295.78 387.14C295.872 387.377 295.926 387.626 295.94 387.88Z" fill="#263238"/>
<g opacity="0.3">
<path d="M203.22 373.09C209.43 407.37 220.22 442.74 235.47 474.09H242.47C245.33 470.09 244.38 464.61 242.59 460.09C240.8 455.57 238.27 451.09 238.3 446.2C238.3 443.2 239.3 440.27 239.69 437.28C241.12 425.73 233.19 415.17 231.35 403.68C230.69 399.53 231.07 394.73 234.22 391.94C236.98 389.49 241.02 389.3 244.71 389.39C254.35 389.62 264.14 390.83 273.55 388.71C282.96 386.59 292.21 380.15 294.16 370.71L203.22 373.09Z" fill="black"/>
</g>
<path d="M294.53 265.5L325 257.27C325 257.27 318.48 237.93 313.4 224C308.91 211.68 301.4 206.55 297.46 203.76C295.875 202.63 294.039 201.902 292.11 201.64C284.89 200.64 265.17 198.09 255.38 197.27C243.27 196.27 217.99 202.92 217.99 202.92C217.99 202.92 195.82 215.22 188.34 220.19C186.514 221.394 185.114 223.144 184.34 225.19C182.96 228.91 181.2 235.3 179.1 243.56C177.75 248.82 173.32 266.21 173.32 266.21L199.32 265.41C204.56 281.32 209.42 295.61 209.42 295.61L204.71 324.87C204.71 324.87 240.25 339.08 249.33 338.07C258.41 337.06 299.56 321.17 299.56 321.17C299.56 321.17 294.85 274.75 294.85 273.41C294.85 272.89 294.71 269.52 294.53 265.5Z" fill="#E63462"/>
<g opacity="0.3">
<path d="M264.55 234.55C263.528 233.384 262.234 232.489 260.782 231.945C259.33 231.4 257.767 231.224 256.23 231.43C253.162 231.877 250.252 233.076 247.76 234.92C239.87 240.27 234.28 248.34 229.33 256.47C220.698 270.657 213.445 285.639 207.67 301.21L207.87 305.21C214.34 304.4 218.55 298.94 221.36 293.06C224.17 287.18 225.36 280.67 227.85 274.64C232.657 263.051 241.852 253.834 253.43 249C255.356 249.248 257.314 249.035 259.141 248.378C260.968 247.72 262.613 246.638 263.94 245.22C266.46 242.31 266.94 237.59 264.55 234.55Z" fill="black"/>
</g>
<path d="M294.83 270.55C294.68 270.55 293.83 262.11 292.9 251.69C291.97 241.27 291.35 232.8 291.49 232.78C291.63 232.76 292.49 241.21 293.42 251.64C294.35 262.07 295 270.53 294.83 270.55Z" fill="#263238"/>
<path d="M192.4 232.78C192.566 233.204 192.693 233.643 192.78 234.09C193.01 235.09 193.29 236.26 193.63 237.71C194.33 240.71 195.27 244.99 196.26 249.71C197.25 254.43 198.14 258.63 198.74 261.71C199.02 263.17 199.25 264.4 199.44 265.36C199.548 265.802 199.608 266.255 199.62 266.71C199.452 266.286 199.325 265.848 199.24 265.4C199.01 264.45 198.73 263.24 198.38 261.79C197.68 258.73 196.75 254.5 195.75 249.79C194.75 245.08 193.88 240.87 193.27 237.79C193 236.33 192.76 235.11 192.58 234.15C192.471 233.701 192.411 233.242 192.4 232.78Z" fill="#263238"/>
<path d="M290.18 202C290.33 202 289.45 205.42 288.85 209.67C288.25 213.92 288.12 217.42 287.96 217.42C287.824 216.661 287.791 215.888 287.86 215.12C287.912 213.273 288.069 211.43 288.33 209.6C288.594 207.77 288.965 205.957 289.44 204.17C289.587 203.416 289.836 202.686 290.18 202Z" fill="#263238"/>
<path d="M294.53 265.5C294.26 265.58 302.28 293.14 302.28 293.14L278.71 291.22L267.46 305L307.63 319.8C307.63 319.8 332.53 308.7 332.53 307.69C332.53 306.68 323.53 257.69 323.53 257.69L294.53 265.5Z" fill="#886962"/>
<path d="M277.19 268.69C277.42 268.683 277.646 268.629 277.854 268.531C278.062 268.433 278.248 268.293 278.4 268.12C278.584 267.917 278.724 267.678 278.812 267.418C278.9 267.158 278.933 266.883 278.91 266.61C278.858 266.241 278.701 265.896 278.459 265.614C278.216 265.332 277.897 265.126 277.54 265.02C277.1 264.859 276.625 264.819 276.165 264.904C275.704 264.988 275.274 265.194 274.92 265.5C274.503 265.842 274.162 266.268 273.92 266.75C273.793 267.006 273.693 267.274 273.62 267.55C273.55 267.83 273.46 268.14 273.62 268.32C273.707 268.411 273.818 268.476 273.94 268.506C274.062 268.536 274.191 268.53 274.31 268.49C274.591 268.413 274.837 268.244 275.01 268.01C275.194 267.755 275.316 267.46 275.364 267.148C275.413 266.837 275.387 266.519 275.29 266.22C275.138 265.909 274.925 265.631 274.665 265.403C274.404 265.175 274.1 265.001 273.771 264.892C273.442 264.783 273.095 264.741 272.75 264.768C272.404 264.795 272.068 264.891 271.76 265.05C271.056 265.369 270.441 265.857 269.97 266.47C269.73 266.755 269.574 267.101 269.52 267.47C269.495 267.631 269.532 267.795 269.623 267.93C269.714 268.066 269.852 268.162 270.01 268.2C270.192 268.226 270.377 268.208 270.55 268.149C270.724 268.09 270.882 267.991 271.01 267.86C271.276 267.591 271.439 267.237 271.47 266.86C271.491 266.446 271.406 266.034 271.222 265.663C271.038 265.292 270.762 264.974 270.42 264.74C270.048 264.512 269.632 264.365 269.199 264.31C268.767 264.255 268.327 264.293 267.91 264.42C267.476 264.518 267.07 264.714 266.723 264.993C266.377 265.272 266.099 265.627 265.91 266.03C265.812 266.219 265.756 266.426 265.746 266.638C265.736 266.851 265.771 267.063 265.85 267.26C265.939 267.445 266.083 267.597 266.262 267.697C266.441 267.798 266.646 267.84 266.85 267.82C267.069 267.813 267.284 267.754 267.475 267.647C267.666 267.539 267.829 267.387 267.948 267.204C268.068 267.02 268.142 266.81 268.163 266.592C268.184 266.373 268.152 266.153 268.07 265.95C267.907 265.507 267.601 265.13 267.201 264.879C266.802 264.627 266.33 264.515 265.86 264.56C264.845 264.648 263.895 265.094 263.18 265.82C262.786 266.164 262.434 266.554 262.13 266.98C261.983 267.159 261.881 267.37 261.83 267.595C261.78 267.821 261.783 268.056 261.84 268.28C261.891 268.369 261.96 268.447 262.042 268.509C262.125 268.571 262.218 268.616 262.318 268.641C262.418 268.666 262.521 268.671 262.623 268.655C262.725 268.64 262.822 268.604 262.91 268.55C263.113 268.437 263.279 268.267 263.387 268.061C263.496 267.855 263.542 267.622 263.52 267.39C263.486 266.868 263.325 266.362 263.052 265.916C262.778 265.47 262.4 265.097 261.95 264.83C261.261 264.406 260.444 264.242 259.645 264.367C258.846 264.491 258.117 264.897 257.59 265.51C257.421 265.701 257.293 265.925 257.214 266.167C257.135 266.41 257.106 266.666 257.13 266.92C257.23 267.92 258.89 268.13 259.43 267.29C259.692 266.838 259.766 266.301 259.637 265.794C259.508 265.288 259.186 264.852 258.74 264.58C258.264 264.314 257.734 264.16 257.19 264.131C256.645 264.101 256.102 264.197 255.6 264.41C255.075 264.611 254.572 264.865 254.1 265.17C253.635 265.43 253.232 265.788 252.92 266.22C252.781 266.414 252.698 266.643 252.68 266.881C252.663 267.119 252.711 267.357 252.82 267.57C252.861 267.668 252.922 267.755 253 267.827C253.078 267.899 253.17 267.953 253.27 267.986C253.371 268.019 253.477 268.031 253.582 268.019C253.687 268.008 253.789 267.974 253.88 267.92C254.076 267.799 254.232 267.622 254.329 267.412C254.425 267.202 254.456 266.968 254.42 266.74C254.352 266.237 254.14 265.765 253.81 265.38C253.49 264.991 253.079 264.687 252.613 264.495C252.147 264.303 251.641 264.229 251.14 264.28C250.648 264.327 250.175 264.495 249.763 264.769C249.351 265.043 249.013 265.414 248.78 265.85C248.672 266.048 248.61 266.266 248.596 266.491C248.582 266.716 248.617 266.941 248.7 267.15C248.79 267.33 248.937 267.475 249.117 267.563C249.298 267.652 249.503 267.679 249.7 267.64C249.914 267.615 250.118 267.535 250.293 267.409C250.468 267.283 250.608 267.115 250.7 266.92C250.789 266.717 250.835 266.497 250.835 266.275C250.835 266.053 250.789 265.833 250.7 265.63C250.506 265.215 250.209 264.856 249.838 264.587C249.468 264.317 249.035 264.146 248.58 264.09C247.675 263.887 246.734 263.911 245.84 264.16C245.422 264.255 245.038 264.461 244.728 264.757C244.418 265.053 244.194 265.427 244.08 265.84C243.989 266.238 244.039 266.654 244.222 267.019C244.404 267.384 244.707 267.674 245.08 267.84C245.454 267.911 245.84 267.832 246.156 267.621C246.472 267.409 246.693 267.082 246.77 266.71C246.846 266.331 246.83 265.94 246.722 265.569C246.614 265.198 246.418 264.858 246.15 264.58C245.642 264.01 244.972 263.609 244.23 263.43C243.532 263.26 242.803 263.262 242.107 263.436C241.41 263.61 240.766 263.951 240.23 264.43C239.736 264.865 239.387 265.441 239.23 266.08C239.158 266.366 239.168 266.667 239.258 266.948C239.348 267.229 239.515 267.479 239.74 267.67C239.945 267.843 240.207 267.934 240.475 267.925C240.743 267.915 240.998 267.807 241.19 267.62C241.38 267.449 241.525 267.233 241.611 266.992C241.696 266.751 241.72 266.493 241.68 266.24C241.603 265.758 241.41 265.302 241.117 264.912C240.825 264.522 240.441 264.209 240 264C239.335 263.637 238.563 263.52 237.82 263.67C237.272 263.786 236.761 264.033 236.33 264.39C235.98 264.696 235.683 265.058 235.45 265.46C235.485 265.345 235.532 265.235 235.59 265.13C235.766 264.821 235.993 264.544 236.26 264.31C236.691 263.92 237.214 263.645 237.78 263.51C238.565 263.334 239.386 263.44 240.1 263.81C240.556 264.031 240.954 264.356 241.262 264.759C241.569 265.162 241.778 265.631 241.87 266.13C241.917 266.427 241.89 266.73 241.793 267.015C241.695 267.299 241.529 267.555 241.31 267.76C241.066 267.993 240.745 268.129 240.408 268.142C240.071 268.155 239.741 268.044 239.48 267.83C239.209 267.605 239.005 267.309 238.892 266.976C238.779 266.642 238.761 266.283 238.84 265.94C238.98 265.24 239.329 264.598 239.84 264.1C240.414 263.575 241.108 263.199 241.861 263.005C242.615 262.812 243.404 262.806 244.16 262.99C244.986 263.179 245.734 263.619 246.3 264.25C246.613 264.577 246.843 264.976 246.968 265.411C247.093 265.847 247.111 266.306 247.02 266.75C246.89 267.215 246.613 267.625 246.23 267.92C246.028 268.074 245.792 268.179 245.542 268.226C245.292 268.273 245.034 268.26 244.79 268.19C244.549 268.11 244.328 267.979 244.142 267.807C243.955 267.634 243.808 267.424 243.71 267.19C243.49 266.733 243.417 266.22 243.5 265.72C243.633 265.231 243.895 264.787 244.259 264.435C244.624 264.083 245.077 263.836 245.57 263.72C246.545 263.435 247.576 263.397 248.57 263.61C249.102 263.687 249.607 263.894 250.04 264.213C250.473 264.533 250.82 264.954 251.05 265.44C251.161 265.704 251.219 265.988 251.219 266.275C251.219 266.562 251.161 266.846 251.05 267.11C250.922 267.379 250.729 267.611 250.487 267.786C250.246 267.961 249.965 268.072 249.67 268.11C249.361 268.172 249.04 268.132 248.757 267.995C248.473 267.857 248.242 267.631 248.1 267.35C247.983 267.07 247.93 266.769 247.944 266.466C247.957 266.163 248.038 265.868 248.18 265.6C248.456 265.082 248.855 264.64 249.342 264.314C249.83 263.987 250.391 263.787 250.975 263.729C251.558 263.672 252.148 263.76 252.689 263.985C253.231 264.21 253.709 264.566 254.08 265.02C254.485 265.479 254.74 266.052 254.81 266.66C254.856 266.989 254.805 267.324 254.663 267.625C254.521 267.925 254.294 268.177 254.01 268.35C253.862 268.441 253.696 268.5 253.524 268.522C253.352 268.545 253.176 268.53 253.01 268.48C252.675 268.362 252.399 268.118 252.24 267.8C252.084 267.503 252.013 267.169 252.032 266.835C252.051 266.5 252.161 266.177 252.35 265.9C252.703 265.398 253.165 264.981 253.7 264.68C254.202 264.353 254.739 264.081 255.3 263.87C255.88 263.626 256.508 263.519 257.136 263.557C257.764 263.595 258.374 263.777 258.92 264.09C259.207 264.261 259.457 264.488 259.655 264.758C259.854 265.027 259.996 265.333 260.074 265.658C260.153 265.983 260.165 266.321 260.111 266.651C260.057 266.981 259.938 267.297 259.76 267.58C259.551 267.858 259.27 268.074 258.948 268.205C258.625 268.335 258.273 268.375 257.93 268.32C257.562 268.285 257.213 268.138 256.93 267.9C256.664 267.659 256.488 267.334 256.43 266.98C256.392 266.651 256.423 266.317 256.521 266C256.62 265.683 256.782 265.39 257 265.14C257.611 264.42 258.459 263.944 259.391 263.797C260.324 263.65 261.278 263.843 262.08 264.34C262.604 264.654 263.044 265.092 263.361 265.615C263.679 266.137 263.863 266.73 263.9 267.34C263.917 267.671 263.841 268 263.68 268.29C263.519 268.58 263.28 268.819 262.99 268.98C262.68 269.132 262.327 269.174 261.99 269.1C261.815 269.061 261.652 268.982 261.513 268.87C261.374 268.757 261.264 268.613 261.19 268.45C261.096 268.144 261.077 267.82 261.134 267.505C261.192 267.19 261.324 266.893 261.52 266.64C261.847 266.175 262.23 265.751 262.66 265.38C263.462 264.575 264.527 264.086 265.66 264C266.24 263.97 266.817 264.109 267.32 264.4C267.817 264.713 268.189 265.191 268.37 265.75C268.464 266.028 268.496 266.324 268.464 266.616C268.431 266.908 268.334 267.19 268.18 267.44C268.013 267.681 267.792 267.881 267.536 268.023C267.279 268.165 266.993 268.246 266.7 268.26C266.401 268.279 266.103 268.21 265.843 268.061C265.583 267.911 265.373 267.688 265.24 267.42C265.13 267.16 265.079 266.88 265.089 266.598C265.1 266.317 265.172 266.041 265.3 265.79C265.521 265.32 265.846 264.907 266.252 264.582C266.658 264.258 267.133 264.032 267.64 263.92C268.12 263.778 268.625 263.74 269.122 263.807C269.618 263.874 270.095 264.045 270.52 264.31C270.926 264.589 271.253 264.969 271.469 265.413C271.684 265.856 271.781 266.348 271.75 266.84C271.747 267.091 271.692 267.339 271.587 267.568C271.483 267.796 271.331 268 271.143 268.166C270.954 268.332 270.732 268.457 270.492 268.531C270.253 268.606 270 268.629 269.75 268.6C269.492 268.538 269.266 268.384 269.115 268.166C268.964 267.949 268.898 267.683 268.93 267.42C268.996 266.967 269.187 266.541 269.48 266.19C270.002 265.54 270.67 265.022 271.43 264.68C272.147 264.337 272.972 264.293 273.722 264.557C274.472 264.821 275.086 265.373 275.43 266.09C275.548 266.442 275.577 266.817 275.516 267.184C275.455 267.55 275.306 267.895 275.08 268.19C274.86 268.483 274.545 268.691 274.19 268.78C274.01 268.834 273.819 268.832 273.64 268.775C273.462 268.717 273.305 268.608 273.19 268.46C273.124 268.302 273.09 268.132 273.09 267.96C273.09 267.788 273.124 267.618 273.19 267.46C273.275 267.169 273.388 266.888 273.53 266.62C273.79 266.104 274.154 265.648 274.6 265.28C274.992 264.958 275.461 264.744 275.962 264.662C276.462 264.579 276.976 264.63 277.45 264.81C277.839 264.935 278.184 265.169 278.443 265.485C278.702 265.8 278.864 266.184 278.91 266.59C278.926 266.883 278.882 267.176 278.78 267.451C278.679 267.726 278.522 267.978 278.32 268.19C278.183 268.355 278.01 268.487 277.814 268.574C277.618 268.66 277.404 268.7 277.19 268.69Z" fill="#263238"/>
<path d="M235.26 265.81L221.5 317.81L265.25 319.19L279.01 267.83L235.26 265.81Z" fill="#455A64"/>
<path d="M235.26 265.81L233.51 265.97L219.63 314L221.74 316.9L235.26 265.81Z" fill="#E0E0E0"/>
<path d="M264.22 279.06H278.43C279.099 279.05 279.756 279.24 280.317 279.605C280.878 279.97 281.318 280.494 281.58 281.11C282.148 282.401 282.428 283.8 282.4 285.21C283.013 286.045 283.362 287.045 283.4 288.08C283.543 290.675 283.543 293.275 283.4 295.87C283.27 296.28 281.76 296.69 281.76 296.69C281.76 296.69 282.76 298.88 281.9 300.51C281.497 301.426 280.766 302.157 279.85 302.56C279.85 302.56 277.94 306.94 276.02 307.48C274.1 308.02 272.34 307.48 271.38 307.48C270.42 307.48 254.98 299.56 254.98 299.56V297.78C254.98 297.78 249.52 298.33 249.38 295.32C249.24 292.31 252.93 292.5 252.93 292.5H261.27C261.27 292.5 252.11 292.86 251.27 291.5C250.43 290.14 249.35 286.85 252.15 286.31C254.95 285.77 267.59 285.76 267.59 285.76L274.49 286.9H275.58L274.73 283.9C274.73 283.9 267.49 283.9 266.41 283.75C265.33 283.6 263.29 283.34 263.29 281.43C263.29 279.52 264.22 279.06 264.22 279.06Z" fill="#886962"/>
<path d="M272.21 293.34C271.336 293.495 270.447 293.556 269.56 293.52C267.92 293.52 265.65 293.52 263.15 293.34C260.65 293.16 258.39 292.92 256.77 292.69C255.884 292.613 255.008 292.439 254.16 292.17C255.045 292.131 255.933 292.174 256.81 292.3C258.44 292.44 260.69 292.63 263.18 292.79C265.67 292.95 267.93 293.05 269.56 293.13C270.448 293.112 271.336 293.182 272.21 293.34Z" fill="#654742"/>
<path d="M270.92 301C270.13 301.083 269.333 301.059 268.55 300.93C267.1 300.8 265.1 300.57 262.9 300.21C260.7 299.85 258.73 299.45 257.31 299.1C256.53 298.966 255.768 298.741 255.04 298.43C255.832 298.436 256.62 298.533 257.39 298.72L262.99 299.67L268.6 300.55C269.387 300.619 270.164 300.77 270.92 301Z" fill="#654742"/>
<path d="M282.82 290.26C282.82 290.26 283.02 290.32 283.32 290.57C283.735 290.936 284.051 291.4 284.24 291.92C284.548 292.735 284.53 293.638 284.19 294.44C283.967 294.949 283.63 295.401 283.205 295.759C282.781 296.118 282.279 296.375 281.74 296.51L281.9 296.12C282.22 296.666 282.422 297.274 282.491 297.903C282.56 298.532 282.495 299.169 282.3 299.772C282.106 300.374 281.786 300.929 281.362 301.399C280.938 301.869 280.419 302.244 279.84 302.5L280 302.32C279.515 304.17 278.436 305.811 276.93 306.99C276.501 307.321 276.039 307.606 275.55 307.84C275.381 307.939 275.194 308.004 275 308.03C275 307.96 275.71 307.63 276.72 306.74C278.083 305.542 279.052 303.959 279.5 302.2V302.07L279.62 302.02C280.125 301.789 280.577 301.455 280.946 301.04C281.315 300.625 281.593 300.138 281.763 299.609C281.934 299.08 281.992 298.522 281.935 297.969C281.877 297.417 281.705 296.882 281.43 296.4L281.23 296.09L281.59 296C282.058 295.891 282.495 295.678 282.869 295.377C283.243 295.076 283.544 294.694 283.75 294.26C284.08 293.559 284.138 292.761 283.91 292.02C283.677 291.362 283.305 290.762 282.82 290.26Z" fill="#654742"/>
<path d="M249.33 222.66L258.1 205L255.38 197.26C255.38 197.26 268.54 190.43 264.04 176.49C261.87 169.76 256.27 156.26 251.04 144.1C248.337 137.801 243.363 132.75 237.105 129.952C230.848 127.154 223.767 126.814 217.27 129L215.93 129.45C201.77 135.15 198.7 150.36 204.79 164.36L222.6 216.36L249.33 222.66Z" fill="#886962"/>
<path d="M255.39 197.22C249.02 199.494 242.117 199.821 235.56 198.16C235.56 198.16 243.2 206.71 256.64 200.8L255.39 197.22Z" fill="#654742"/>
<path d="M251.53 155.06C251.708 155.575 251.678 156.139 251.447 156.632C251.215 157.125 250.8 157.508 250.29 157.7C250.044 157.806 249.78 157.861 249.512 157.863C249.245 157.865 248.98 157.813 248.732 157.71C248.485 157.608 248.261 157.456 248.074 157.266C247.886 157.075 247.739 156.849 247.64 156.6C247.462 156.085 247.492 155.521 247.723 155.028C247.955 154.535 248.37 154.152 248.88 153.96C249.126 153.854 249.39 153.799 249.658 153.797C249.925 153.795 250.19 153.847 250.437 153.95C250.685 154.052 250.909 154.203 251.096 154.394C251.284 154.585 251.431 154.811 251.53 155.06Z" fill="#263238"/>
<path d="M250.32 151.06C250.16 151.4 248.32 150.8 246.16 151.52C244 152.24 242.82 153.84 242.5 153.65C242.35 153.58 242.44 153.02 242.96 152.3C243.667 151.359 244.649 150.66 245.77 150.3C246.885 149.939 248.085 149.939 249.2 150.3C250 150.51 250.4 150.91 250.32 151.06Z" fill="#263238"/>
<path d="M231.9 161.57C232.079 162.086 232.049 162.652 231.817 163.146C231.586 163.641 231.171 164.026 230.66 164.22C230.414 164.326 230.15 164.381 229.882 164.383C229.615 164.385 229.35 164.333 229.103 164.23C228.855 164.128 228.631 163.976 228.444 163.786C228.256 163.595 228.109 163.369 228.01 163.12C227.831 162.604 227.861 162.038 228.093 161.543C228.324 161.049 228.739 160.664 229.25 160.47C229.496 160.364 229.76 160.309 230.028 160.307C230.295 160.305 230.56 160.357 230.808 160.46C231.055 160.562 231.279 160.713 231.466 160.904C231.654 161.095 231.801 161.321 231.9 161.57Z" fill="#263238"/>
<path d="M229.6 157.38C229.47 157.74 227.54 157.38 225.5 158.29C223.46 159.2 222.44 160.95 222.1 160.81C221.94 160.75 221.97 160.19 222.41 159.41C223.006 158.386 223.909 157.575 224.99 157.09C226.05 156.594 227.242 156.45 228.39 156.68C229.24 156.87 229.66 157.22 229.6 157.38Z" fill="#263238"/>
<path d="M242.59 172.53C243.592 171.796 244.684 171.194 245.84 170.74C246.37 170.5 246.84 170.22 246.84 169.82C246.84 169.42 246.41 168.87 245.94 168.32L242.94 164.72C238.72 159.56 235.46 155.25 235.67 155.08C235.88 154.91 239.47 158.96 243.67 164.08L246.61 167.73C247.174 168.275 247.528 169 247.61 169.78C247.594 169.999 247.529 170.211 247.42 170.401C247.311 170.592 247.16 170.755 246.98 170.88C246.706 171.06 246.41 171.204 246.1 171.31C244.987 171.865 243.807 172.275 242.59 172.53Z" fill="#263238"/>
<path d="M226.7 150C226.7 150.65 224.46 151.09 222.06 152.23C219.66 153.37 217.86 154.74 217.35 154.33C217.12 154.13 217.29 153.47 217.92 152.63C218.781 151.578 219.868 150.735 221.101 150.163C222.335 149.592 223.681 149.307 225.04 149.33C226.08 149.34 226.7 149.64 226.7 150Z" fill="#263238"/>
<path d="M247.78 145.32C247.57 145.94 245.93 145.93 244.15 146.5C242.37 147.07 241 147.92 240.48 147.5C240.25 147.3 240.32 146.74 240.82 146.06C241.515 145.216 242.444 144.597 243.491 144.28C244.537 143.964 245.654 143.963 246.7 144.28C247.49 144.6 247.87 145 247.78 145.32Z" fill="#263238"/>
<path d="M209.38 174.21C209.11 174.21 198.89 174.59 202.38 183.98C205.87 193.37 214.58 187.98 214.5 187.65C214.42 187.32 209.38 174.21 209.38 174.21Z" fill="#886962"/>
<path d="M210.31 185.16C210.26 185.16 210.19 185.34 209.96 185.57C209.633 185.88 209.2 186.052 208.75 186.05C207.62 186.05 206.2 184.79 205.53 183.11C205.201 182.316 205.058 181.458 205.11 180.6C205.089 180.274 205.148 179.947 205.282 179.649C205.416 179.351 205.622 179.09 205.88 178.89C206.051 178.776 206.256 178.725 206.46 178.745C206.664 178.766 206.855 178.855 207 179C207.22 179.21 207.23 179.42 207.29 179.42C207.35 179.42 207.43 179.19 207.21 178.83C207.07 178.618 206.862 178.459 206.62 178.38C206.288 178.279 205.929 178.312 205.62 178.47C205.262 178.691 204.966 179 204.761 179.367C204.556 179.735 204.449 180.149 204.45 180.57C204.354 181.529 204.495 182.498 204.86 183.39C205.62 185.26 207.25 186.68 208.75 186.56C209.03 186.54 209.302 186.458 209.546 186.32C209.79 186.181 210 185.99 210.16 185.76C210.38 185.4 210.35 185.17 210.31 185.16Z" fill="#654742"/>
<path d="M236.8 176.12C237.14 175.98 237.93 178.3 240.46 179.27C242.99 180.24 245.38 179.17 245.46 179.48C245.54 179.62 245.06 180.12 244.03 180.48C242.681 180.956 241.207 180.938 239.87 180.43C238.585 179.945 237.538 178.981 236.95 177.74C236.57 176.82 236.64 176.16 236.8 176.12Z" fill="#263238"/>
<path d="M254.46 123.54C254.029 122.678 253.391 121.936 252.601 121.383C251.812 120.829 250.897 120.481 249.94 120.37C249.755 119.845 249.521 119.34 249.24 118.86C248.374 117.401 247.034 116.283 245.443 115.694C243.853 115.104 242.108 115.078 240.5 115.62C239.83 114.491 238.864 113.566 237.708 112.945C236.551 112.324 235.247 112.03 233.935 112.094C232.624 112.159 231.355 112.58 230.265 113.313C229.175 114.045 228.306 115.06 227.75 116.25C226.215 115.634 224.536 115.472 222.911 115.784C221.287 116.096 219.787 116.869 218.59 118.01C218.277 118.274 218.045 118.62 217.92 119.01C217.892 119.144 217.891 119.282 217.919 119.417C217.947 119.551 218.001 119.678 218.08 119.79C217.401 119.24 216.599 118.861 215.743 118.687C214.886 118.513 214 118.548 213.16 118.79C212.592 118.965 212.057 119.235 211.58 119.59C210.12 120.227 208.965 121.407 208.36 122.88C206.233 122.912 204.192 123.723 202.622 125.158C201.052 126.594 200.062 128.554 199.84 130.67C198.323 131.303 197.029 132.374 196.123 133.745C195.216 135.116 194.738 136.726 194.75 138.37C193.766 138.779 192.909 139.442 192.267 140.292C191.624 141.142 191.22 142.147 191.095 143.205C190.969 144.263 191.128 145.335 191.554 146.311C191.981 147.288 192.659 148.133 193.52 148.76C193.52 148.76 187.38 152.5 191.1 157.85C193 160.59 196.9 158.69 196.9 158.69L208.44 176.16C208.39 176.28 210.44 178.09 211.44 177.22C212.44 176.35 212.67 174.96 212.98 173.68C213.455 172.254 213.701 170.763 213.71 169.26C213.696 168.509 213.439 167.782 212.977 167.189C212.516 166.596 211.875 166.169 211.15 165.97C211.839 165.371 212.358 164.6 212.654 163.737C212.951 162.873 213.015 161.946 212.84 161.05C212.477 159.262 211.8 157.552 210.84 156L206.97 148.93C208.674 148.284 210.17 147.184 211.294 145.749C212.419 144.314 213.129 142.599 213.35 140.79C214.126 141.014 214.942 141.071 215.742 140.957C216.542 140.843 217.309 140.561 217.992 140.129C218.675 139.697 219.259 139.126 219.705 138.452C220.151 137.778 220.449 137.017 220.58 136.22C221.761 137.697 223.458 138.67 225.329 138.945C227.199 139.22 229.104 138.775 230.66 137.7C230.94 139.79 235.08 140.43 237.19 140.3C239.3 140.17 241.26 137.99 241.26 137.99C242.676 138.279 244.133 138.309 245.56 138.08L245.77 138.03C248.54 137.39 250.34 134.03 250.85 131.28C251.574 131.124 252.257 130.814 252.85 130.37C253.835 129.569 254.526 128.465 254.818 127.229C255.109 125.994 254.983 124.697 254.46 123.54Z" fill="#263238"/>
<path d="M176.47 266.1C176.47 266.1 170.38 288.1 169.04 293.52C167.7 298.94 167.71 311.41 170.73 315.11C173.75 318.81 183.85 321.16 183.85 321.16C183.85 321.16 203.62 311.51 210.34 299.74C217.06 287.97 235.47 255.94 235.47 255.94L229.64 239.94L199 269.2L199.31 265.4L176.47 266.1Z" fill="#886962"/>
<path d="M240.46 189.52C240.712 189.392 240.987 189.316 241.269 189.295C241.55 189.273 241.833 189.308 242.102 189.396C242.37 189.484 242.619 189.625 242.833 189.809C243.047 189.993 243.223 190.218 243.35 190.47L261 225.58L256.48 227.58L239.48 192.35C239.243 191.843 239.213 191.265 239.396 190.736C239.579 190.208 239.961 189.772 240.46 189.52Z" fill="#455A64"/>
<path d="M228.66 241L245.14 224H260.94L271.06 237.36C271.06 237.36 266.27 238.25 264.55 235.68L262.32 232.5C262.32 232.5 264.55 237.39 263.32 239.8C263.32 239.8 260.95 245.38 260.57 245.98C259.85 247.1 259.3 247.82 257.24 247.48C255.18 247.14 251.98 245.48 252.33 244.26C252.438 243.913 252.639 243.603 252.91 243.361C253.181 243.12 253.513 242.957 253.87 242.89L249.06 242.2C249.06 242.2 244.22 250.97 241.3 253.03C239.498 254.289 237.525 255.283 235.44 255.98L228.66 241Z" fill="#886962"/>
<path d="M199.62 268.69C199.62 268.77 198.29 269.41 196.19 270.63C193.465 272.23 190.903 274.092 188.54 276.19C186.183 278.305 184.042 280.65 182.15 283.19C180.69 285.13 179.9 286.42 179.83 286.37C179.95 286.037 180.108 285.718 180.3 285.42C180.63 284.82 181.15 283.98 181.85 282.97C185.516 277.705 190.361 273.37 196 270.31C197.08 269.73 198 269.31 198.61 269.05C198.932 268.891 199.27 268.77 199.62 268.69Z" fill="#654742"/>
<path d="M248.77 228.9C249.523 228.682 250.298 228.551 251.08 228.51C252.52 228.33 254.51 228.13 256.7 227.93C257.254 227.86 257.816 227.86 258.37 227.93C258.903 228.007 259.41 228.21 259.85 228.52C260.567 229.034 261.142 229.723 261.52 230.52C261.903 231.214 262.154 231.974 262.26 232.76C262.18 232.76 261.88 231.94 261.2 230.69C260.809 229.977 260.258 229.364 259.59 228.9C259.199 228.649 258.759 228.482 258.3 228.41C257.785 228.35 257.265 228.35 256.75 228.41C254.55 228.6 252.56 228.75 251.11 228.83C250.335 228.936 249.55 228.96 248.77 228.9Z" fill="#654742"/>
<path d="M261.35 245.08C261.27 245.08 261.42 243.88 261.35 241.97C261.291 240.853 261.14 239.743 260.9 238.65C260.63 237.45 260.24 236.01 259.04 235.31C258.428 234.985 257.771 234.752 257.09 234.62L255.15 234.18C254.056 233.934 252.947 233.763 251.83 233.67C250.799 233.634 249.767 233.661 248.74 233.75C248.988 233.606 249.264 233.518 249.55 233.49C250.307 233.342 251.079 233.278 251.85 233.3C252.99 233.339 254.124 233.477 255.24 233.71C255.87 233.83 256.53 233.97 257.24 234.13C257.971 234.261 258.676 234.507 259.33 234.86C259.993 235.262 260.511 235.864 260.81 236.58C261.082 237.221 261.277 237.893 261.39 238.58C261.619 239.703 261.739 240.844 261.75 241.99C261.762 242.759 261.716 243.528 261.61 244.29C261.566 244.566 261.478 244.832 261.35 245.08Z" fill="#654742"/>
<path d="M255.63 239.37C255.869 240.409 255.954 241.477 255.88 242.54V242.85L255.57 242.79C255.394 242.775 255.216 242.775 255.04 242.79C254.21 242.822 253.426 243.181 252.86 243.79C252.41 244.26 252.27 244.66 252.19 244.63C252.11 244.6 252.19 244.15 252.58 243.56C252.867 243.177 253.238 242.865 253.664 242.648C254.091 242.432 254.562 242.316 255.04 242.31C255.255 242.312 255.469 242.336 255.68 242.38L255.37 242.63C255.292 241.536 255.38 240.437 255.63 239.37Z" fill="#654742"/>
<path d="M255.65 239.9C254.581 239.945 253.51 239.895 252.45 239.75C251.377 239.778 250.303 239.714 249.24 239.56C250.276 239.198 251.382 239.085 252.47 239.23C253.568 239.204 254.656 239.433 255.65 239.9Z" fill="#654742"/>
<path d="M249.5 239.08C249.56 240.223 249.315 241.363 248.79 242.38C248.429 243.47 247.787 244.446 246.93 245.21C246.81 245.12 247.61 243.87 248.31 242.21C249.01 240.55 249.35 239.05 249.5 239.08Z" fill="#654742"/>
<path d="M312.66 431.31L311.24 476.58L367.55 478.64C367.42 473.25 338.68 461.38 338.68 461.38L340.79 432.38L312.66 431.31Z" fill="#E63462"/>
<g opacity="0.6">
<path d="M321.36 458.3C320.812 458.446 320.337 458.789 320.025 459.263C319.713 459.737 319.587 460.309 319.67 460.87C319.795 461.422 320.127 461.905 320.598 462.22C321.069 462.534 321.642 462.656 322.2 462.56C322.781 462.408 323.284 462.046 323.611 461.543C323.939 461.04 324.067 460.432 323.97 459.84C323.782 459.277 323.383 458.81 322.857 458.536C322.331 458.262 321.719 458.202 321.15 458.37" fill="white"/>
</g>
<g opacity="0.6">
<path d="M311.24 476.58L311.56 472.02L365.43 475.7C365.43 475.7 367.9 476.89 367.55 478.64L311.24 476.58Z" fill="white"/>
</g>
<path d="M339.61 461.13C339.61 461.4 338.21 461.48 336.82 462.31C335.43 463.14 334.67 464.31 334.42 464.16C334.17 464.01 334.64 462.47 336.34 461.49C338.04 460.51 339.67 460.88 339.61 461.13Z" fill="#263238"/>
<path d="M345.42 463.79C345.48 464.06 344.27 464.48 343.29 465.61C342.31 466.74 342 467.96 341.73 467.94C341.46 467.92 341.34 466.35 342.58 464.94C343.82 463.53 345.43 463.53 345.42 463.79Z" fill="#263238"/>
<path d="M348.52 471C348.27 471 347.93 469.66 348.7 468.18C349.47 466.7 350.76 466.18 350.87 466.38C350.98 466.58 350.15 467.38 349.55 468.62C348.95 469.86 348.79 471 348.52 471Z" fill="#263238"/>
<path d="M339.35 454.47C339.23 454.72 337.98 454.29 336.42 454.34C334.86 454.39 333.63 454.84 333.5 454.6C333.37 454.36 334.57 453.42 336.4 453.39C338.23 453.36 339.5 454.26 339.35 454.47Z" fill="#263238"/>
<path d="M338.26 447.74C338.26 447.86 337.16 447.99 335.44 447.62C334.43 447.406 333.449 447.071 332.52 446.62C331.969 446.351 331.438 446.044 330.93 445.7C330.619 445.515 330.339 445.282 330.1 445.01C329.928 444.807 329.828 444.553 329.816 444.287C329.803 444.021 329.878 443.759 330.03 443.54C330.175 443.354 330.362 443.204 330.576 443.104C330.79 443.003 331.024 442.954 331.26 442.96C331.617 442.967 331.971 443.027 332.31 443.14C332.908 443.304 333.488 443.529 334.04 443.81C334.977 444.271 335.835 444.878 336.58 445.61C337.84 446.87 338.25 447.91 338.16 447.96C338.07 448.01 337.42 447.16 336.16 446.11C335.406 445.507 334.579 445 333.7 444.6C333.181 444.376 332.646 444.193 332.1 444.05C331.5 443.87 331 443.84 330.83 444.05C330.78 444.15 330.77 444.19 330.89 444.37C331.064 444.569 331.266 444.74 331.49 444.88C331.98 445.22 332.49 445.52 332.95 445.79C333.809 446.253 334.71 446.635 335.64 446.93C336.531 447.139 337.407 447.409 338.26 447.74Z" fill="#263238"/>
<path d="M337.88 448.12C337.78 448.12 337.28 447.12 337.24 445.37C337.226 443.697 337.669 442.051 338.52 440.61C338.686 440.244 338.944 439.927 339.268 439.689C339.592 439.451 339.971 439.3 340.37 439.25C340.62 439.267 340.861 439.354 341.064 439.5C341.267 439.647 341.425 439.848 341.52 440.08C341.653 440.416 341.737 440.77 341.77 441.13C341.843 441.763 341.819 442.404 341.7 443.03C341.505 444.079 341.055 445.065 340.39 445.9C339.24 447.32 338.08 447.6 338.06 447.51C338.04 447.42 338.95 446.87 339.84 445.51C340.363 444.721 340.704 443.826 340.84 442.89C340.92 442.35 340.92 441.8 340.84 441.26C340.77 440.66 340.57 440.17 340.34 440.26C340.11 440.35 339.57 440.68 339.34 441.15C339.041 441.624 338.789 442.126 338.59 442.65C338.243 443.548 338.024 444.491 337.94 445.45C337.78 447.05 338 448.09 337.88 448.12Z" fill="#263238"/>
<path d="M228.19 431.64L242.45 474.64L189.05 492.64C187.64 487.44 211.81 467.88 211.81 467.88L201.55 440.71L228.19 431.64Z" fill="#E63462"/>
<g opacity="0.6">
<path d="M227.54 460C228.109 459.985 228.664 460.181 229.098 460.55C229.532 460.919 229.814 461.436 229.89 462C229.928 462.565 229.748 463.124 229.387 463.56C229.026 463.997 228.512 464.28 227.95 464.35C227.349 464.365 226.764 464.159 226.307 463.769C225.849 463.38 225.551 462.835 225.47 462.24C225.47 461.11 226.65 459.83 227.76 460.02" fill="white"/>
</g>
<g opacity="0.6">
<path d="M242.45 474.63L240.84 470.35L190.25 489.22C190.25 489.22 188.25 491.06 189.05 492.64L242.45 474.63Z" fill="white"/>
</g>
<path d="M210.86 467.9C210.95 468.15 212.3 467.83 213.86 468.24C215.42 468.65 216.48 469.51 216.69 469.32C216.9 469.13 215.99 467.77 214.09 467.32C212.19 466.87 210.72 467.68 210.86 467.9Z" fill="#263238"/>
<path d="M206 472.1C206 472.37 207.3 472.44 208.56 473.24C209.82 474.04 210.47 475.13 210.72 475.03C210.97 474.93 210.65 473.4 209.06 472.43C207.47 471.46 206 471.85 206 472.1Z" fill="#263238"/>
<path d="M205.12 479.88C205.37 479.88 205.3 478.43 204.12 477.23C202.94 476.03 201.55 475.87 201.52 476.12C201.49 476.37 202.52 476.89 203.42 477.89C204.32 478.89 204.85 479.94 205.12 479.88Z" fill="#263238"/>
<path d="M209.2 461.44C209.39 461.65 210.47 460.88 211.97 460.44C213.47 460 214.79 460.12 214.85 459.86C214.91 459.6 213.49 459.03 211.72 459.52C209.95 460.01 209 461.28 209.2 461.44Z" fill="#263238"/>
<path d="M208.34 454.68C208.34 454.79 209.46 454.6 211.01 453.76C211.915 453.267 212.755 452.662 213.51 451.96C213.961 451.544 214.385 451.099 214.78 450.63C215.023 450.363 215.222 450.059 215.37 449.73C215.481 449.487 215.506 449.214 215.443 448.954C215.379 448.695 215.23 448.465 215.02 448.3C214.829 448.162 214.608 448.071 214.375 448.035C214.142 447.998 213.904 448.017 213.68 448.09C213.325 448.199 212.988 448.361 212.68 448.57C212.158 448.903 211.666 449.281 211.21 449.7C210.445 450.411 209.797 451.237 209.29 452.15C208.744 452.945 208.451 453.886 208.45 454.85C208.6 454.85 208.93 453.85 209.87 452.5C210.421 451.705 211.069 450.983 211.8 450.35C212.232 449.98 212.694 449.646 213.18 449.35C213.69 449.01 214.18 448.85 214.4 449.05C214.62 449.25 214.51 449.16 214.4 449.37C214.284 449.609 214.136 449.831 213.96 450.03C213.609 450.481 213.228 450.909 212.82 451.31C212.132 452.004 211.378 452.63 210.57 453.18C209.27 454.13 208.28 454.54 208.34 454.68Z" fill="#263238"/>
<path d="M208.8 454.94C208.91 454.94 209.11 453.84 208.64 452.12C208.176 450.512 207.284 449.061 206.06 447.92C205.795 447.616 205.456 447.386 205.076 447.251C204.696 447.116 204.287 447.081 203.89 447.15C203.654 447.234 203.447 447.384 203.295 447.583C203.142 447.782 203.05 448.02 203.03 448.27C202.994 448.627 203.011 448.988 203.08 449.34C203.389 451.031 204.352 452.533 205.76 453.52C207.28 454.52 208.47 454.52 208.46 454.4C207.672 453.973 206.911 453.499 206.18 452.98C205.459 452.372 204.879 451.615 204.48 450.76C204.253 450.26 204.095 449.732 204.01 449.19C203.9 448.6 204.01 448.07 204.19 448.05C204.424 448.051 204.655 448.103 204.867 448.201C205.079 448.299 205.268 448.442 205.42 448.62C205.842 448.991 206.23 449.4 206.58 449.84C207.168 450.601 207.643 451.443 207.99 452.34C208.6 453.88 208.65 455 208.8 454.94Z" fill="#263238"/>
<path d="M215.33 329.51C215.33 329.51 194.41 310.96 185.23 311.12C176.05 311.28 145.94 309.27 158.57 350.99C171.3 393.06 194.1 457.39 194.72 455.08L234 437.84L218 378C218 378 271.47 378.6 281.8 377.25C292.13 375.9 311.45 362.25 311.45 362.25L308.37 437.86L349.37 435.58C349.37 435.58 355.13 344.75 356.79 326.09C358.23 309.84 339.97 291.6 321.34 295.71C309.18 298.4 265.69 329.1 265.69 329.1L215.33 329.51Z" fill="#263238"/>
<path d="M312.86 322.09C312.923 322.755 312.923 323.425 312.86 324.09C312.79 325.49 312.69 327.29 312.58 329.47C312.37 334.02 312.22 340.3 312.11 347.25C312 354.2 311.87 360.49 311.63 365.04C311.52 367.32 311.38 369.16 311.26 370.43C311.24 371.104 311.153 371.774 311 372.43C310.947 371.764 310.947 371.096 311 370.43C311 369.03 311.08 367.22 311.14 365.05C311.22 360.37 311.32 354.14 311.43 347.25C311.54 340.36 311.76 334.01 312.09 329.46C312.26 327.19 312.43 325.35 312.59 324.08C312.626 323.41 312.716 322.745 312.86 322.09Z" fill="#455A64"/>
<path d="M311.2 357.49C310.482 356.867 309.871 356.13 309.39 355.31C306.864 351.456 305.477 346.967 305.39 342.36C305.31 341.413 305.395 340.459 305.64 339.54C305.87 339.54 305.55 343.89 307.15 348.92C308.75 353.95 311.39 357.37 311.2 357.49Z" fill="#455A64"/>
<path d="M255.41 372.81C255.34 372.81 255.26 371.81 254.94 369.93C254.495 367.321 253.775 364.767 252.79 362.31C251.334 358.676 249.334 355.284 246.86 352.25C243.817 348.531 240.081 345.437 235.86 343.14C227 338 219.17 332.94 213.71 329C210.98 327 208.83 325.34 207.41 324.1C206.69 323.5 206.16 322.99 205.8 322.65C205.607 322.487 205.432 322.302 205.28 322.1C205.28 322.1 206.1 322.73 207.58 323.89C209.06 325.05 211.23 326.69 213.99 328.6C219.51 332.44 227.36 337.41 236.24 342.6C240.521 344.944 244.3 348.107 247.36 351.91C249.848 355.01 251.832 358.483 253.24 362.2C254.212 364.695 254.884 367.296 255.24 369.95C255.345 370.666 255.408 371.387 255.43 372.11C255.448 372.343 255.441 372.578 255.41 372.81Z" fill="#455A64"/>
<path d="M269.88 328.51C269.71 329.114 269.482 329.7 269.2 330.26C268.71 331.37 268.05 332.98 267.29 335C263.31 345.531 261.464 356.749 261.86 368C261.93 370.15 262.04 371.89 262.15 373.09C262.241 373.712 262.268 374.342 262.23 374.97C262.057 374.365 261.94 373.746 261.88 373.12C261.69 371.93 261.51 370.18 261.38 368.02C260.711 356.701 262.576 345.376 266.84 334.87C267.66 332.87 268.39 331.27 268.96 330.2C269.21 329.608 269.518 329.042 269.88 328.51Z" fill="#455A64"/>
<path d="M191.22 323.07C191.419 323.178 191.61 323.302 191.79 323.44L193.36 324.59C193.71 324.84 194.08 325.12 194.49 325.43C194.9 325.74 195.29 326.14 195.74 326.54C196.772 327.424 197.744 328.377 198.65 329.39L200.24 331.16C200.75 331.81 201.24 332.5 201.79 333.16L202.61 334.25C202.87 334.63 203.11 335.03 203.36 335.43C203.86 336.24 204.36 337.05 204.9 337.92C206.989 341.719 208.749 345.69 210.16 349.79C211.71 354.13 212.88 358.37 213.93 362.21L216.65 372.44C217.45 375.35 218.09 377.7 218.58 379.31C218.8 380.09 218.97 380.71 219.11 381.18C219.174 381.397 219.224 381.617 219.26 381.84C219.154 381.64 219.07 381.429 219.01 381.21C218.86 380.74 218.65 380.13 218.4 379.37C217.86 377.77 217.16 375.43 216.32 372.53L213.5 362.33C212.42 358.49 211.24 354.27 209.7 349.95C208.299 345.877 206.563 341.926 204.51 338.14C204.02 337.27 203.51 336.46 203 335.66C202.75 335.26 202.52 334.86 202.26 334.48L201.47 333.4C200.94 332.69 200.47 331.99 199.95 331.35L198.4 329.57C197.514 328.552 196.566 327.59 195.56 326.69C195.12 326.28 194.74 325.88 194.34 325.55L193.25 324.69L191.73 323.47C191.547 323.354 191.376 323.22 191.22 323.07Z" fill="#455A64"/>
<path d="M214.9 329.14C222.36 334.06 230.58 335.22 239.37 336.9C244.44 337.9 249.74 338.75 254.69 337.29C265.3 334.16 275.55 322.08 282.36 317.78L253.91 325L214.9 329.14Z" fill="#E63462"/>
<path d="M133.727 185.449C155.727 176.047 165.94 150.591 156.538 128.591C147.136 106.591 121.679 96.3778 99.679 105.78C77.6789 115.182 67.4661 140.638 76.8681 162.639C86.2701 184.639 111.727 194.851 133.727 185.449Z" fill="#FAFAFA"/>
<path d="M159.019 155.439C164.434 132.055 149.869 108.709 126.485 103.293C103.102 97.8778 79.7559 112.444 74.3402 135.827C68.9246 159.21 83.4902 182.556 106.874 187.972C130.257 193.388 153.603 178.822 159.019 155.439Z" fill="white"/>
<path d="M161.49 167.31C161.49 167.31 161.03 167.44 160.31 167.85C159.295 168.441 158.488 169.332 158 170.4C157.651 171.124 157.47 171.917 157.47 172.72C157.487 173.635 157.764 174.527 158.27 175.29C158.815 176.196 159.623 176.915 160.587 177.349C161.551 177.784 162.624 177.913 163.664 177.721C164.704 177.528 165.66 177.023 166.404 176.272C167.149 175.521 167.646 174.561 167.83 173.52C168.029 172.625 167.967 171.691 167.65 170.83C167.362 170.074 166.912 169.392 166.33 168.83C165.485 168.013 164.41 167.472 163.25 167.28C162.43 167.16 161.96 167.28 161.95 167.2L162.29 167.13C162.426 167.118 162.564 167.118 162.7 167.13C162.89 167.116 163.08 167.116 163.27 167.13C164.298 167.251 165.276 167.645 166.1 168.271C166.925 168.897 167.567 169.732 167.96 170.69C168.32 171.609 168.4 172.615 168.19 173.58C167.969 174.64 167.46 175.619 166.72 176.41C165.947 177.297 164.897 177.896 163.741 178.11C162.584 178.325 161.389 178.141 160.35 177.59C159.373 177.114 158.543 176.381 157.95 175.47C157.414 174.646 157.132 173.683 157.14 172.7C157.15 171.848 157.355 171.01 157.74 170.25C158.276 169.15 159.153 168.252 160.24 167.69C160.407 167.6 160.581 167.523 160.76 167.46C160.89 167.408 161.024 167.368 161.16 167.34C161.37 167.31 161.49 167.29 161.49 167.31Z" fill="#263238"/>
<path d="M160.19 143.57C160.19 143.57 160.19 143.33 160.1 142.87C160.01 142.41 159.97 141.7 159.88 140.81C159.88 140.35 159.78 139.81 159.72 139.29C159.66 138.77 159.49 138.13 159.37 137.48C159.25 136.83 159.09 136.12 158.94 135.37C158.864 134.984 158.763 134.604 158.64 134.23C158.51 133.84 158.39 133.44 158.26 133.02C157.062 128.992 155.262 125.169 152.92 121.68C149.847 117.035 145.909 113.026 141.32 109.87L139.38 108.55C138.7 108.15 137.99 107.79 137.28 107.4L136.21 106.81C135.857 106.604 135.489 106.424 135.11 106.27L132.81 105.27C132.42 105.11 132.03 104.93 131.64 104.78L130.41 104.4L127.93 103.62C127.09 103.38 126.21 103.24 125.35 103.05L124 102.8C123.78 102.8 123.56 102.7 123.34 102.67L122.66 102.6C120.835 102.343 118.994 102.213 117.15 102.21C116.21 102.21 115.27 102.21 114.32 102.21L111.46 102.49C110.98 102.55 110.46 102.57 110.01 102.65L108.58 102.94C107.58 103.14 106.64 103.3 105.68 103.55C103.736 104.083 101.831 104.751 99.9801 105.55L98.5601 106.14L97.8501 106.44L97.1701 106.81L94.4401 108.29C93.5401 108.83 92.6901 109.45 91.8101 110.03C91.3801 110.33 90.9201 110.59 90.5101 110.93L89.2801 111.93C87.6082 113.291 86.0281 114.761 84.5501 116.33L82.4601 118.86L81.9301 119.5C81.7701 119.72 81.6201 119.95 81.4601 120.18L80.5301 121.55L79.6001 122.93L78.7901 124.4L78.0001 125.87L77.6001 126.61C77.4801 126.87 77.3801 127.13 77.2601 127.39C76.8201 128.39 76.3801 129.47 75.9301 130.51C75.4801 131.55 75.2501 132.68 74.9301 133.78C72.3523 142.79 72.7948 152.396 76.1901 161.13L77.5101 164.29C78.0501 165.29 78.5901 166.29 79.1201 167.29L79.5301 168.03L80.0001 168.73L80.9401 170.12L81.8701 171.51L82.9301 172.8L84.0001 174.07L84.5201 174.71L85.1101 175.29L87.4201 177.62C89.0349 179.047 90.7419 180.367 92.5301 181.57L93.8501 182.47C94.2901 182.77 94.7701 182.99 95.2301 183.26C96.1601 183.75 97.0701 184.26 98.0101 184.74L100.87 185.97L101.58 186.27C101.82 186.36 102.07 186.43 102.31 186.51L103.78 186.97C105.7 187.576 107.657 188.054 109.64 188.4C110.64 188.55 111.64 188.62 112.57 188.74L114.03 188.89C114.52 188.89 115.03 188.89 115.48 188.89H118.36C119.36 188.89 120.25 188.72 121.18 188.65C123.018 188.474 124.842 188.176 126.64 187.76L127.3 187.63L127.95 187.43L129.24 187.04C130.08 186.77 130.94 186.55 131.76 186.24L134.16 185.24L135.34 184.74L136.46 184.15L138.67 182.96C139.019 182.772 139.353 182.558 139.67 182.32L140.67 181.64C141.33 181.18 142.01 180.76 142.67 180.29L144.48 178.81C148.78 175.259 152.353 170.909 155 166C155.3 165.46 155.6 164.94 155.87 164.41L156.56 162.81C156.78 162.29 157 161.81 157.22 161.27C157.32 161.02 157.44 160.77 157.53 160.52L157.77 159.76C158.09 158.76 158.39 157.76 158.69 156.88C158.99 156 159.09 155.06 159.29 154.22C159.38 153.79 159.46 153.38 159.55 152.98C159.643 152.595 159.706 152.204 159.74 151.81C159.827 151.05 159.907 150.34 159.98 149.68C160.04 149.02 160.14 148.41 160.17 147.85C160.2 147.29 160.17 146.78 160.17 146.32C160.17 145.42 160.17 144.72 160.17 144.25C160.17 143.78 160.17 143.54 160.17 143.54C160.17 143.54 160.17 143.78 160.17 144.25C160.17 144.72 160.17 145.42 160.17 146.32C160.17 146.78 160.17 147.32 160.17 147.85C160.17 148.38 160.06 149.03 160 149.69C159.94 150.35 159.86 151.07 159.78 151.83C159.755 152.229 159.691 152.624 159.59 153.01C159.51 153.41 159.43 153.82 159.34 154.25C159.15 155.09 159.01 156 158.75 156.93C158.49 157.86 158.17 158.81 157.85 159.82C157.77 160.07 157.7 160.33 157.61 160.59C157.52 160.85 157.41 161.09 157.31 161.34C157.09 161.847 156.87 162.367 156.65 162.9C156.42 163.42 156.2 163.96 155.96 164.51C155.72 165.06 155.4 165.57 155.1 166.11C152.474 171.059 148.915 175.453 144.62 179.05L142.8 180.55C142.16 181.02 141.48 181.45 140.8 181.91L139.8 182.59C139.47 182.837 139.118 183.054 138.75 183.24L136.54 184.44L135.41 185.05L134.22 185.55L131.8 186.55C130.98 186.87 130.11 187.09 129.26 187.37L127.97 187.77L127.32 187.96L126.64 188.09C124.834 188.523 122.999 188.827 121.15 189C120.21 189.08 119.26 189.21 118.3 189.25H115.4C114.92 189.25 114.4 189.25 113.94 189.25L112.47 189.1C111.47 188.98 110.47 188.91 109.47 188.76C107.466 188.415 105.488 187.934 103.55 187.32L102.08 186.86C101.83 186.78 101.58 186.71 101.34 186.62L100.62 186.32L97.7301 185.09C96.7301 184.63 95.8701 184.09 94.9301 183.59C94.4701 183.32 93.9301 183.1 93.5401 182.8L92.2101 181.89C90.4006 180.676 88.6766 179.34 87.0501 177.89L84.7101 175.54L84.2001 175L83.6701 174.36L82.6001 173L81.5401 171.7L80.5401 170.3L79.5401 168.89L79.0701 168.19L78.6601 167.44L77.0301 164.44C76.5801 163.38 76.1401 162.32 75.6901 161.25C72.2682 152.434 71.8256 142.741 74.4301 133.65C74.7701 132.54 75.1201 131.45 75.4301 130.35L76.7701 127.2C76.8801 126.94 76.9901 126.67 77.1101 126.42L77.5201 125.67L78.3301 124.18L79.1501 122.7L80.0901 121.31L81.0301 119.93C81.1901 119.7 81.3401 119.46 81.5101 119.24L82.0401 118.6L84.1501 116.05C85.6388 114.465 87.2324 112.981 88.9201 111.61L90.1701 110.61C90.5801 110.27 91.0501 110 91.4801 109.69C92.3701 109.11 93.2301 108.49 94.1301 107.94L97.0001 106.45L97.6801 106.08C97.9201 105.97 98.1601 105.88 98.4001 105.78L99.8201 105.18C101.694 104.387 103.618 103.719 105.58 103.18C106.58 102.94 107.53 102.78 108.5 102.58L109.95 102.29C110.43 102.2 110.95 102.18 111.4 102.13L114.29 101.85C115.29 101.79 116.2 101.85 117.14 101.85C119 101.853 120.858 101.983 122.7 102.24L123.38 102.32C123.6 102.32 123.82 102.41 124.05 102.45L125.37 102.73C126.25 102.92 127.13 103.07 127.98 103.3L130.47 104.09L131.71 104.48L132.88 104.98L135.2 105.98C135.583 106.137 135.953 106.321 136.31 106.53L137.38 107.12C138.09 107.52 138.81 107.89 139.49 108.29L141.44 109.62C146.048 112.807 149.997 116.855 153.07 121.54C155.408 125.058 157.196 128.912 158.37 132.97C158.5 133.38 158.62 133.79 158.74 134.18C158.868 134.555 158.965 134.939 159.03 135.33C159.18 136.09 159.32 136.79 159.44 137.45C159.56 138.11 159.71 138.7 159.78 139.26C159.85 139.82 159.88 140.33 159.92 140.79C160 141.69 160.06 142.38 160.1 142.86C160.18 143.33 160.19 143.57 160.19 143.57Z" fill="#263238"/>
<path d="M132.62 141.65C132.629 138.798 131.871 135.997 130.425 133.539C128.98 131.081 126.901 129.056 124.405 127.677C121.909 126.298 119.089 125.615 116.238 125.699C113.388 125.784 110.613 126.633 108.203 128.157C105.794 129.682 103.838 131.826 102.541 134.366C101.244 136.905 100.653 139.747 100.831 142.593C101.008 145.439 101.948 148.185 103.55 150.543C105.153 152.902 107.36 154.787 109.94 156V160H123.88C123.88 160 123.96 157.75 123.99 155.74C126.581 154.408 128.757 152.389 130.279 149.904C131.801 147.419 132.611 144.564 132.62 141.65Z" fill="#E63462"/>
<path d="M118.84 160C118.84 160 118.84 159.93 118.84 159.8C118.84 159.67 118.84 159.47 118.91 159.23C118.97 158.72 119.06 157.98 119.2 157.03C119.34 156.08 119.53 154.91 119.83 153.57C120.162 152.051 120.648 150.57 121.28 149.15C121.637 148.317 122.072 147.52 122.58 146.77C122.854 146.351 123.229 146.007 123.67 145.77C123.904 145.65 124.162 145.587 124.425 145.587C124.688 145.587 124.946 145.65 125.18 145.77C125.423 145.906 125.603 146.132 125.68 146.4C125.766 146.668 125.745 146.958 125.62 147.21C125.356 147.704 124.918 148.082 124.39 148.27C123.3 148.635 122.109 148.552 121.08 148.04C120.547 147.772 120.074 147.399 119.689 146.944C119.304 146.489 119.015 145.96 118.84 145.39C118.637 144.798 118.602 144.161 118.74 143.55C118.815 143.226 119.001 142.938 119.266 142.737C119.531 142.536 119.858 142.435 120.19 142.45C120.362 142.466 120.527 142.525 120.669 142.623C120.811 142.722 120.925 142.855 121 143.01C121.162 143.317 121.208 143.672 121.13 144.01C120.929 144.64 120.538 145.192 120.01 145.59C119.502 146.02 118.909 146.338 118.27 146.523C117.63 146.707 116.959 146.754 116.3 146.66C115.641 146.555 115.018 146.292 114.483 145.893C113.948 145.495 113.518 144.972 113.23 144.37C113.079 144.074 112.991 143.749 112.972 143.417C112.953 143.084 113.004 142.752 113.12 142.44C113.178 142.281 113.27 142.136 113.389 142.016C113.509 141.896 113.654 141.804 113.813 141.745C113.972 141.687 114.142 141.665 114.311 141.679C114.48 141.694 114.643 141.745 114.79 141.83C115.082 141.989 115.32 142.233 115.47 142.53C115.605 142.82 115.686 143.131 115.71 143.45C115.747 144.063 115.666 144.678 115.47 145.26C115.091 146.403 114.29 147.358 113.23 147.93C112.222 148.466 111.055 148.625 109.94 148.38C109.39 148.289 108.885 148.023 108.5 147.62C108.314 147.412 108.204 147.148 108.19 146.869C108.175 146.591 108.257 146.316 108.42 146.09C108.602 145.885 108.857 145.76 109.13 145.74C109.392 145.724 109.654 145.776 109.89 145.89C110.336 146.131 110.688 146.515 110.89 146.98C111.29 147.84 111.61 148.68 111.89 149.48C113.16 152.69 114.06 155.33 114.67 157.16C114.97 158.07 115.19 158.79 115.34 159.27C115.41 159.51 115.47 159.69 115.51 159.82C115.55 159.95 115.51 160.01 115.51 160.01C115.483 159.952 115.46 159.891 115.44 159.83C115.44 159.7 115.33 159.52 115.25 159.28C115.09 158.79 114.85 158.09 114.54 157.18C113.92 155.36 113 152.73 111.71 149.53C111.38 148.74 111.05 147.89 110.66 147.05C110.472 146.628 110.153 146.277 109.75 146.05C109.552 145.974 109.334 145.962 109.129 146.018C108.924 146.074 108.742 146.193 108.609 146.359C108.477 146.525 108.4 146.729 108.392 146.942C108.383 147.154 108.442 147.363 108.56 147.54C108.92 147.909 109.39 148.151 109.9 148.23C110.975 148.464 112.099 148.308 113.07 147.79C114.088 147.239 114.857 146.319 115.22 145.22C115.411 144.661 115.49 144.07 115.45 143.48C115.448 143.188 115.373 142.902 115.232 142.647C115.09 142.391 114.887 142.176 114.64 142.02C114.514 141.951 114.376 141.908 114.233 141.894C114.091 141.88 113.946 141.896 113.81 141.94C113.676 141.992 113.555 142.073 113.454 142.177C113.354 142.28 113.278 142.404 113.23 142.54C113.122 142.826 113.076 143.131 113.093 143.436C113.11 143.74 113.191 144.038 113.33 144.31C113.606 144.883 114.017 145.38 114.527 145.76C115.037 146.14 115.632 146.39 116.26 146.49C116.889 146.579 117.529 146.536 118.14 146.364C118.752 146.192 119.32 145.894 119.81 145.49C120.358 145.136 120.776 144.613 121 144C121.06 143.712 121.022 143.413 120.89 143.15C120.829 143.023 120.736 142.914 120.62 142.834C120.505 142.753 120.37 142.704 120.23 142.69C119.944 142.666 119.66 142.756 119.44 142.94C119.217 143.121 119.059 143.371 118.99 143.65C118.854 144.223 118.886 144.824 119.08 145.38C119.246 145.928 119.521 146.436 119.889 146.874C120.256 147.313 120.709 147.672 121.22 147.93C122.205 148.421 123.344 148.504 124.39 148.16C124.881 147.979 125.287 147.623 125.53 147.16C125.638 146.947 125.66 146.7 125.591 146.471C125.523 146.242 125.368 146.048 125.16 145.93C124.954 145.814 124.723 145.749 124.486 145.741C124.25 145.732 124.014 145.78 123.8 145.88C123.395 146.103 123.052 146.422 122.8 146.81C122.298 147.55 121.863 148.333 121.5 149.15C120.874 150.567 120.385 152.04 120.04 153.55C119.73 154.88 119.53 156.04 119.37 156.99C119.21 157.94 119.12 158.67 119.05 159.18L118.96 159.75L118.84 160Z" fill="#263238"/>
<path d="M122.8 162.62H110.8C110.682 162.621 110.565 162.599 110.456 162.555C110.347 162.511 110.248 162.446 110.164 162.363C110.081 162.28 110.014 162.182 109.969 162.073C109.923 161.964 109.9 161.848 109.9 161.73C109.9 161.491 109.995 161.262 110.164 161.094C110.332 160.925 110.561 160.83 110.8 160.83H122.8C123.039 160.83 123.268 160.925 123.436 161.094C123.605 161.262 123.7 161.491 123.7 161.73C123.7 161.848 123.677 161.964 123.631 162.073C123.586 162.182 123.52 162.28 123.436 162.363C123.352 162.446 123.253 162.511 123.144 162.555C123.035 162.599 122.918 162.621 122.8 162.62Z" fill="#263238"/>
<path d="M122.8 163.41H110.8C110.675 163.397 110.548 163.41 110.428 163.449C110.308 163.488 110.197 163.552 110.103 163.636C110.01 163.72 109.935 163.824 109.883 163.939C109.832 164.054 109.805 164.179 109.805 164.305C109.805 164.431 109.832 164.556 109.883 164.671C109.935 164.787 110.01 164.89 110.103 164.974C110.197 165.058 110.308 165.122 110.428 165.161C110.548 165.2 110.675 165.213 110.8 165.2H112.11L113.85 168.52C113.947 168.702 114.091 168.856 114.266 168.965C114.442 169.074 114.643 169.134 114.85 169.14H119.12C119.328 169.134 119.53 169.073 119.706 168.962C119.882 168.851 120.025 168.695 120.12 168.51L121.81 165.2H122.7C122.826 165.213 122.952 165.2 123.072 165.161C123.192 165.122 123.303 165.058 123.397 164.974C123.491 164.89 123.566 164.787 123.617 164.671C123.668 164.556 123.695 164.431 123.695 164.305C123.695 164.179 123.668 164.054 123.617 163.939C123.566 163.824 123.491 163.72 123.397 163.636C123.303 163.552 123.192 163.488 123.072 163.449C122.952 163.41 122.826 163.397 122.7 163.41H122.8Z" fill="#263238"/>
<g opacity="0.2">
<path d="M106.5 131.51C107.438 130.638 108.512 129.925 109.68 129.4C110.459 129.036 111.288 128.794 112.14 128.68C112.74 128.62 113.08 128.68 113.14 128.81C113.21 129.1 112 129.52 110.38 130.61C108.25 131.946 106.551 133.868 105.487 136.145C104.423 138.423 104.038 140.959 104.38 143.45C104.6 145.39 105.05 146.59 104.78 146.72C104.67 146.78 104.4 146.56 104.06 146.06C103.612 145.334 103.275 144.545 103.06 143.72C102.707 142.489 102.559 141.209 102.62 139.93C102.697 138.339 103.077 136.778 103.74 135.33" fill="white"/>
</g>
<g opacity="0.2">
<path d="M116.93 129.49C115.93 129.49 115.04 129.21 114.93 128.67C114.93 128.41 115.07 128.13 115.44 127.91C115.899 127.658 116.416 127.53 116.94 127.54C117.465 127.53 117.983 127.661 118.44 127.92C118.81 128.15 118.99 128.43 118.94 128.69" fill="white"/>
</g>
<path d="M120 168.79C119.718 168.725 119.441 168.642 119.17 168.54C118.521 168.352 117.846 168.267 117.17 168.29C116.488 168.309 115.813 168.433 115.17 168.66C114.67 168.83 114.38 168.99 114.37 168.96C114.587 168.766 114.843 168.619 115.12 168.53C116.439 167.985 117.912 167.942 119.26 168.41C119.524 168.499 119.773 168.627 120 168.79Z" fill="#455A64"/>
<path d="M121.94 165.25C121.94 165.3 119.77 165.34 117.11 165.34C114.45 165.34 112.27 165.34 112.27 165.25C112.27 165.16 114.44 165.15 117.11 165.15C119.78 165.15 121.94 165.19 121.94 165.25Z" fill="#455A64"/>
<path d="M121.19 166.66C120.802 166.74 120.406 166.78 120.01 166.78C119.28 166.83 118.27 166.87 117.16 166.89C116.05 166.91 115.03 166.89 114.3 166.89C113.905 166.895 113.51 166.865 113.12 166.8C113.511 166.751 113.906 166.734 114.3 166.75H117.15H120C120.395 166.697 120.792 166.667 121.19 166.66Z" fill="#455A64"/>
<path d="M356.92 165.51H355.56H351.56L336.17 165.57L279.87 165.65H279.67V165.46C279.67 141.98 279.67 113.67 279.62 82.51V82.26H340.06H421.93H422.17V82.5C422.17 114.87 422.12 143.22 422.1 165.45V165.62H421.93L381.19 165.54H370.29H367.48H366.48H367.48H370.29L381.19 165.49L421.93 165.41L421.76 165.59C421.76 143.36 421.76 115.01 421.69 82.64L421.93 82.89H279.86L280.11 82.64C280.11 113.8 280.11 142.11 280.05 165.59L279.86 165.39L336.16 165.48H351.55H355.55L356.92 165.51Z" fill="black"/>
<path d="M366.51 165.51H421.92V82.56H279.86V165.51H356.92" fill="white"/>
<path d="M422.42 166.01H366.51V165.01H421.42V83.06H280.36V165.01H356.92V166.01H279.36V82.06H422.42V166.01Z" fill="black"/>
<path d="M421.93 82.56H279.86V88.69H421.93V82.56Z" fill="#F5F5F5"/>
<path d="M422.42 89.19H279.36V82.06H422.42V89.19ZM280.36 88.19H421.42V83.06H280.36V88.19Z" fill="black"/>
<path d="M284.18 85.74C284.18 85.9522 284.096 86.1557 283.946 86.3057C283.796 86.4557 283.592 86.54 283.38 86.54C283.168 86.54 282.964 86.4557 282.814 86.3057C282.664 86.1557 282.58 85.9522 282.58 85.74C282.58 85.5278 282.664 85.3243 282.814 85.1743C282.964 85.0243 283.168 84.94 283.38 84.94C283.592 84.94 283.796 85.0243 283.946 85.1743C284.096 85.3243 284.18 85.5278 284.18 85.74Z" fill="#263238"/>
<path d="M283.38 87C283.122 87 282.871 86.9235 282.657 86.7802C282.443 86.6369 282.276 86.4333 282.178 86.1952C282.08 85.957 282.055 85.6951 282.106 85.4427C282.157 85.1903 282.282 84.9586 282.464 84.7772C282.647 84.5958 282.88 84.4728 283.133 84.4238C283.385 84.3748 283.647 84.4019 283.884 84.5019C284.122 84.6018 284.324 84.77 284.466 84.9851C284.607 85.2002 284.682 85.4525 284.68 85.71C284.677 86.0531 284.539 86.3812 284.296 86.6228C284.052 86.8644 283.723 87 283.38 87ZM283.38 85.41C283.321 85.41 283.263 85.4276 283.213 85.4606C283.164 85.4935 283.126 85.5404 283.103 85.5952C283.08 85.65 283.074 85.7104 283.086 85.7685C283.097 85.8267 283.126 85.8802 283.168 85.9222C283.21 85.9641 283.263 85.9927 283.321 86.0043C283.38 86.0158 283.44 86.0099 283.495 85.9872C283.55 85.9645 283.597 85.926 283.629 85.8767C283.662 85.8274 283.68 85.7694 283.68 85.71C283.673 85.6358 283.638 85.567 283.582 85.517C283.527 85.4671 283.455 85.4397 283.38 85.44V85.41Z" fill="black"/>
<path d="M287.14 85.74C287.14 85.8446 287.119 85.9481 287.079 86.0446C287.039 86.1412 286.98 86.2287 286.905 86.3022C286.831 86.3757 286.742 86.4337 286.645 86.4728C286.548 86.5119 286.445 86.5313 286.34 86.53C286.13 86.53 285.93 86.4468 285.781 86.2986C285.633 86.1505 285.55 85.9495 285.55 85.74C285.549 85.6354 285.568 85.5316 285.607 85.4346C285.646 85.3376 285.704 85.2493 285.778 85.1749C285.851 85.1005 285.939 85.0414 286.035 85.0011C286.132 84.9608 286.235 84.94 286.34 84.94C286.552 84.94 286.756 85.0243 286.906 85.1743C287.056 85.3243 287.14 85.5278 287.14 85.74Z" fill="#263238"/>
<path d="M286.34 87C286.082 87 285.831 86.9235 285.617 86.7802C285.403 86.6369 285.236 86.4333 285.138 86.1952C285.04 85.957 285.015 85.6951 285.066 85.4427C285.117 85.1903 285.242 84.9586 285.424 84.7772C285.607 84.5958 285.84 84.4728 286.093 84.4238C286.345 84.3748 286.607 84.4019 286.844 84.5019C287.082 84.6018 287.284 84.77 287.426 84.9851C287.567 85.2002 287.642 85.4525 287.64 85.71C287.64 85.8803 287.606 86.0488 287.541 86.206C287.475 86.3632 287.379 86.5058 287.259 86.6257C287.138 86.7457 286.994 86.8405 286.837 86.9047C286.679 86.9689 286.51 87.0013 286.34 87ZM286.34 85.41C286.281 85.41 286.223 85.4276 286.173 85.4606C286.124 85.4935 286.086 85.5404 286.063 85.5952C286.04 85.65 286.034 85.7104 286.046 85.7685C286.057 85.8267 286.086 85.8802 286.128 85.9222C286.17 85.9641 286.223 85.9927 286.281 86.0043C286.34 86.0158 286.4 86.0099 286.455 85.9872C286.51 85.9645 286.556 85.926 286.589 85.8767C286.622 85.8274 286.64 85.7694 286.64 85.71C286.635 85.6349 286.601 85.5647 286.545 85.5143C286.489 85.4639 286.415 85.4373 286.34 85.44V85.41Z" fill="black"/>
<path d="M290.1 85.74C290.1 85.9495 290.017 86.1505 289.869 86.2986C289.72 86.4468 289.52 86.53 289.31 86.53C289.205 86.5313 289.102 86.5119 289.005 86.4728C288.908 86.4337 288.819 86.3757 288.745 86.3022C288.67 86.2287 288.611 86.1412 288.571 86.0446C288.531 85.9481 288.51 85.8446 288.51 85.74C288.51 85.5278 288.594 85.3243 288.744 85.1743C288.894 85.0243 289.098 84.94 289.31 84.94C289.415 84.94 289.518 84.9608 289.615 85.0011C289.711 85.0414 289.799 85.1005 289.872 85.1749C289.946 85.2493 290.004 85.3376 290.043 85.4346C290.082 85.5316 290.101 85.6354 290.1 85.74Z" fill="#263238"/>
<path d="M289.31 87C289.052 87.002 288.799 86.9272 288.584 86.7851C288.369 86.643 288.201 86.4401 288.101 86.2021C288.001 85.9642 287.975 85.702 288.024 85.4489C288.074 85.1957 288.198 84.9632 288.381 84.7808C288.563 84.5984 288.796 84.4744 289.049 84.4245C289.302 84.3747 289.564 84.4013 289.802 84.5009C290.04 84.6005 290.243 84.7687 290.385 84.984C290.527 85.1993 290.602 85.452 290.6 85.71C290.597 86.0513 290.461 86.3779 290.219 86.6193C289.978 86.8606 289.651 86.9974 289.31 87ZM289.31 85.41C289.267 85.402 289.222 85.4036 289.18 85.4147C289.137 85.4259 289.097 85.4462 289.064 85.4744C289.03 85.5025 289.002 85.5378 288.984 85.5776C288.965 85.6175 288.955 85.661 288.955 85.705C288.955 85.749 288.965 85.7925 288.984 85.8323C289.002 85.8722 289.03 85.9074 289.064 85.9356C289.097 85.9638 289.137 85.9841 289.18 85.9952C289.222 86.0064 289.267 86.008 289.31 86C289.379 85.9872 289.441 85.9508 289.486 85.8969C289.531 85.843 289.555 85.7751 289.555 85.705C289.555 85.6349 289.531 85.567 289.486 85.5131C289.441 85.4592 289.379 85.4227 289.31 85.41Z" fill="black"/>
<path d="M351.09 95.76C351.09 95.76 348.28 95.85 344.82 95.85C341.36 95.85 338.56 95.85 338.56 95.76C338.56 95.67 341.37 95.68 344.82 95.68C348.27 95.68 351.09 95.72 351.09 95.76Z" fill="#263238"/>
<path d="M344.82 96.35C341.1 96.35 339.43 96.35 338.67 96.25C338.07 96.17 338.07 96.02 338.07 95.76C338.07 95.5 338.07 95.36 338.67 95.28C339.43 95.18 341.1 95.18 344.82 95.18C348.54 95.18 350.22 95.18 350.97 95.28C351.57 95.36 351.57 95.5 351.57 95.76C351.57 96.02 351.57 96.17 350.97 96.25C350.22 96.35 348.55 96.35 344.82 96.35Z" fill="black"/>
<path d="M367.75 95.76C367.75 95.76 364.94 95.85 361.48 95.85C358.02 95.85 355.22 95.85 355.22 95.76C355.22 95.67 358.02 95.68 361.48 95.68C364.94 95.68 367.75 95.72 367.75 95.76Z" fill="#263238"/>
<path d="M361.48 96.35C357.76 96.35 356.09 96.35 355.33 96.25C354.73 96.17 354.73 96.02 354.73 95.76C354.73 95.5 354.73 95.36 355.33 95.28C356.09 95.18 357.76 95.18 361.48 95.18C365.2 95.18 366.88 95.18 367.63 95.28C368.23 95.36 368.23 95.5 368.23 95.76C368.23 96.02 368.23 96.17 367.63 96.25C366.88 96.35 365.21 96.35 361.48 96.35Z" fill="black"/>
<path d="M384.41 95.76C384.41 95.76 381.6 95.85 378.14 95.85C374.68 95.85 371.88 95.85 371.88 95.76C371.88 95.67 374.68 95.68 378.14 95.68C381.6 95.68 384.41 95.72 384.41 95.76Z" fill="#263238"/>
<path d="M378.14 96.35C374.42 96.35 372.74 96.35 371.99 96.25C371.39 96.17 371.39 96.02 371.39 95.76C371.39 95.5 371.39 95.36 371.99 95.28C372.74 95.18 374.42 95.18 378.14 95.18C381.86 95.18 383.54 95.18 384.29 95.28C384.88 95.36 384.88 95.5 384.88 95.76C384.88 96.02 384.88 96.17 384.29 96.25C383.54 96.35 381.87 96.35 378.14 96.35Z" fill="black"/>
<path d="M401.21 95.76C401.21 95.76 398.41 95.85 394.95 95.85C391.49 95.85 388.69 95.85 388.69 95.76C388.69 95.67 391.49 95.68 394.95 95.68C398.41 95.68 401.21 95.72 401.21 95.76Z" fill="#263238"/>
<path d="M395 96.35C391.28 96.35 389.6 96.35 388.85 96.25C388.26 96.17 388.26 96.02 388.26 95.76C388.26 95.5 388.26 95.36 388.85 95.28C389.6 95.18 391.28 95.18 395 95.18C398.72 95.18 400.4 95.18 401.15 95.28C401.74 95.36 401.74 95.5 401.74 95.76C401.74 96.02 401.74 96.17 401.15 96.25C400.35 96.35 398.68 96.35 395 96.35Z" fill="black"/>
<path d="M409.39 139.29C409.39 139.29 395.78 139.37 379.01 139.37C362.24 139.37 348.62 139.37 348.62 139.29C348.62 139.21 362.22 139.2 379.01 139.2C395.8 139.2 409.39 139.24 409.39 139.29Z" fill="#263238"/>
<path d="M379 139.87C370.6 139.87 363 139.87 357.51 139.87H350.99C349.9 139.87 349.23 139.87 348.81 139.87H348.67C348.11 139.87 348.11 139.69 348.11 139.4C348.11 139.11 348.11 138.97 348.67 138.92H348.8C349.23 138.92 349.9 138.92 350.99 138.87H357.51C363.01 138.87 370.6 138.87 379 138.87C387.4 138.87 395 138.87 400.48 138.87H406.99C408.09 138.87 408.76 138.87 409.18 138.92H409.32C409.88 138.97 409.88 139.1 409.88 139.4C409.88 139.7 409.88 139.82 409.32 139.87H409.18C408.76 139.87 408.08 139.87 406.99 139.87H400.48C395 139.86 387.4 139.87 379 139.87Z" fill="black"/>
<path d="M409.06 148.53C409.06 148.58 395.46 148.62 378.68 148.62C361.9 148.62 348.29 148.62 348.29 148.53C348.29 148.44 361.89 148.45 378.68 148.45C395.47 148.45 409.06 148.49 409.06 148.53Z" fill="#E0E0E0"/>
<path d="M378.68 149.12C370.29 149.12 362.68 149.12 357.19 149.12H350.68C349.59 149.12 348.91 149.12 348.49 149.12H348.35C347.79 149.06 347.79 148.94 347.79 148.64C347.79 148.34 347.79 148.22 348.35 148.16H348.49C348.91 148.16 349.59 148.16 350.68 148.16H357.19H378.68H400.16H406.68C407.77 148.16 408.45 148.16 408.87 148.16H409C409.55 148.22 409.55 148.35 409.55 148.64C409.55 148.93 409.55 149.06 409 149.12H408.87C408.45 149.12 407.77 149.12 406.68 149.12H400.16C394.67 149.11 387.07 149.12 378.68 149.12Z" fill="black"/>
<path d="M409.06 151C409.06 151 395.46 151.08 378.68 151.08C361.9 151.08 348.29 151.08 348.29 151C348.29 150.92 361.89 150.91 378.68 150.91C395.47 150.91 409.06 150.93 409.06 151Z" fill="#E0E0E0"/>
<path d="M378.68 151.56C370.29 151.56 362.68 151.56 357.19 151.56H350.68C349.59 151.56 348.91 151.56 348.49 151.56H348.35C347.79 151.56 347.79 151.38 347.79 151.09C347.79 150.8 347.79 150.66 348.35 150.61H348.49C348.91 150.61 349.59 150.61 350.68 150.56H357.19C362.69 150.56 370.29 150.56 378.68 150.56C387.07 150.56 394.68 150.56 400.16 150.56H406.68C407.77 150.56 408.45 150.56 408.87 150.61H409C409.55 150.66 409.55 150.79 409.55 151.09C409.55 151.39 409.55 151.51 409 151.56H408.87C408.45 151.56 407.77 151.56 406.68 151.56H400.16C394.67 151.55 387.07 151.56 378.68 151.56Z" fill="black"/>
<path d="M379.4 142.49C379.4 142.49 372.51 142.58 364.01 142.58C355.51 142.58 348.62 142.58 348.62 142.49C348.62 142.4 355.51 142.41 364.01 142.41C372.51 142.41 379.4 142.45 379.4 142.49Z" fill="#263238"/>
<path d="M364 143.08C359.75 143.08 355.9 143.08 353.11 143.08C350.81 143.08 349.56 143.08 348.89 143.01H348.68C348.11 142.94 348.11 142.8 348.11 142.54C348.11 142.28 348.11 142.15 348.68 142.08H348.89C349.56 142.02 350.81 142.02 353.11 142.01C355.9 142.01 359.75 142.01 364 142.01C368.25 142.01 372.1 142.01 374.88 142.01C377.19 142.01 378.43 142.01 379.1 142.08H379.31C379.88 142.15 379.88 142.29 379.88 142.54C379.88 142.79 379.88 142.93 379.31 143.01H379.1C378.43 143.06 377.19 143.07 374.88 143.08C372.11 143.07 368.26 143.08 364 143.08Z" fill="black"/>
<path d="M415.81 97.75C415.91 97.7552 416.01 97.7552 416.11 97.75C416.391 97.6853 416.644 97.5309 416.83 97.31C416.966 97.1538 417.065 96.9693 417.12 96.77C417.152 96.5277 417.152 96.2823 417.12 96.04C417.12 95.51 417.25 94.83 416.77 94.33C416.539 94.0764 416.221 93.9192 415.88 93.89C415.52 93.89 415.13 93.89 414.73 93.89H406.34C406.098 93.891 405.86 93.9588 405.654 94.0858C405.448 94.2128 405.28 94.3941 405.17 94.61C405.065 94.8245 405.014 95.0612 405.02 95.3V96C405.01 96.2344 405.027 96.4693 405.07 96.7C405.123 96.9204 405.238 97.1214 405.4 97.28C405.554 97.4356 405.742 97.5522 405.95 97.62C406.166 97.6705 406.388 97.6907 406.61 97.68H411.38H414.59H415.47H415.77C415.77 97.68 415.77 97.68 415.69 97.68H415.47H414.59H411.38H406.61C406.375 97.6944 406.139 97.6742 405.91 97.62C405.671 97.5492 405.454 97.4183 405.28 97.24C405.106 97.0565 404.979 96.8334 404.91 96.59C404.883 96.4649 404.866 96.3378 404.86 96.21V95.11C404.848 94.8472 404.903 94.5858 405.02 94.35C405.145 94.1069 405.334 93.9029 405.566 93.76C405.799 93.6172 406.067 93.541 406.34 93.54H415.89C416.275 93.5658 416.634 93.7418 416.89 94.03C417.115 94.2846 417.242 94.6105 417.25 94.95C417.25 95.26 417.25 95.55 417.25 95.82C417.271 96.0716 417.251 96.3249 417.19 96.57C417.134 96.7792 417.028 96.9716 416.88 97.13C416.678 97.3517 416.413 97.5054 416.12 97.57C416.028 97.6482 415.923 97.7091 415.81 97.75Z" fill="#263238"/>
<path d="M406.52 98.33C406.277 98.3395 406.033 98.3091 405.8 98.24C405.485 98.1474 405.199 97.9752 404.97 97.74C404.732 97.4972 404.56 97.1978 404.47 96.87C404.428 96.7099 404.404 96.5455 404.4 96.38V95.26C404.391 94.9915 404.435 94.7239 404.532 94.4731C404.628 94.2223 404.774 93.9935 404.96 93.8003C405.147 93.6071 405.371 93.4535 405.618 93.3486C405.865 93.2438 406.131 93.1898 406.4 93.19H416C416.512 93.2312 416.988 93.4675 417.33 93.85C417.627 94.1965 417.796 94.634 417.81 95.09V96.09C417.822 96.3459 417.795 96.6022 417.73 96.85C417.654 97.1309 417.51 97.3886 417.31 97.6C417.061 97.8782 416.733 98.0736 416.37 98.16H416.22C416.11 98.168 416 98.168 415.89 98.16H413.89H406.72L406.52 98.33ZM406.58 97.18L415.81 97.25H416C416.177 97.2024 416.334 97.1011 416.45 96.96C416.536 96.8666 416.598 96.7532 416.63 96.63C416.657 96.4778 416.657 96.3222 416.63 96.17V96C416.63 95.89 416.63 95.75 416.63 95.6C416.63 95.15 416.63 94.85 416.42 94.6C416.349 94.5164 416.262 94.4477 416.164 94.3979C416.066 94.3481 415.96 94.3182 415.85 94.31C415.65 94.31 415.42 94.31 415.17 94.31H406.34C406.193 94.313 406.05 94.3554 405.925 94.4328C405.8 94.5102 405.698 94.6198 405.63 94.75C405.561 94.8932 405.526 95.0509 405.53 95.21V96.13C405.513 96.2595 405.513 96.3905 405.53 96.52C405.566 96.6598 405.638 96.7876 405.74 96.89C405.832 96.9895 405.95 97.062 406.08 97.1C406.241 97.1562 406.41 97.1833 406.58 97.18Z" fill="black"/>
<path d="M334.34 111.99H293.76V151.25H334.34V111.99Z" fill="#455A64"/>
<path d="M334.84 151.75H293.26V111.49H334.84V151.75ZM294.26 150.75H333.84V112.49H294.26V150.75Z" fill="black"/>
<g opacity="0.3">
<path d="M296.9 147.89L308.13 127.69L317.31 140.6L322.89 133.74L331.19 147.89H296.9Z" fill="black"/>
<path d="M332.07 148.39H296.07L308.07 126.75L317.33 139.75L322.95 132.85L332.07 148.39ZM297.75 147.39H330.32L322.82 134.62L317.28 141.42L308.18 128.62L297.75 147.39Z" fill="black"/>
</g>
<g opacity="0.3">
<path d="M321.22 123.76C321.22 124.338 321.049 124.902 320.728 125.382C320.407 125.862 319.951 126.237 319.417 126.458C318.884 126.679 318.297 126.737 317.73 126.624C317.164 126.511 316.644 126.233 316.235 125.825C315.827 125.416 315.549 124.896 315.436 124.33C315.323 123.763 315.381 123.176 315.602 122.643C315.823 122.109 316.198 121.653 316.678 121.332C317.158 121.011 317.722 120.84 318.3 120.84C319.074 120.84 319.817 121.148 320.365 121.695C320.912 122.243 321.22 122.986 321.22 123.76Z" fill="black"/>
<path d="M318.3 127.18C317.624 127.18 316.962 126.979 316.4 126.604C315.838 126.228 315.399 125.694 315.14 125.069C314.881 124.444 314.814 123.756 314.946 123.093C315.078 122.429 315.403 121.82 315.882 121.342C316.36 120.863 316.969 120.538 317.633 120.406C318.296 120.274 318.984 120.342 319.609 120.6C320.234 120.859 320.768 121.298 321.144 121.86C321.519 122.422 321.72 123.084 321.72 123.76C321.717 124.666 321.356 125.535 320.715 126.175C320.075 126.816 319.206 127.177 318.3 127.18ZM318.3 121.34C317.821 121.34 317.353 121.482 316.956 121.748C316.558 122.014 316.247 122.392 316.064 122.834C315.881 123.276 315.833 123.763 315.927 124.232C316.02 124.702 316.25 125.133 316.589 125.471C316.927 125.81 317.358 126.04 317.828 126.134C318.297 126.227 318.784 126.179 319.226 125.996C319.668 125.813 320.046 125.502 320.312 125.105C320.578 124.707 320.72 124.239 320.72 123.76C320.72 123.118 320.465 122.503 320.011 122.049C319.557 121.595 318.942 121.34 318.3 121.34Z" fill="black"/>
</g>
<g opacity="0.3">
<path d="M331.19 115.07H296.91C296.839 115.129 296.772 115.192 296.71 115.26V124.07C296.71 126.95 296.71 129.78 296.71 132.53C296.71 138.03 296.71 143.23 296.71 148.01V148.18H296.88L321.78 148.09H328.78H330.6H328.75H321.75L297.13 148C297.13 143.26 297.13 138.12 297.13 132.69V124.23C297.13 122.79 297.13 121.33 297.13 119.86V115.6H331.06C331.06 125.33 331.12 133.43 331.14 139.14C331.14 141.99 331.14 144.25 331.14 145.8C331.14 146.56 331.14 147.15 331.14 147.57C331.14 147.76 331.14 147.91 331.14 148.03C331.14 148.15 331.14 148.19 331.14 148.19C331.14 148.19 331.14 148.14 331.14 148.05V147.61C331.14 147.2 331.14 146.61 331.14 145.87C331.14 144.32 331.14 142.08 331.14 139.24C331.14 133.48 331.19 125.24 331.23 115.43V115.26L331.19 115.07Z" fill="black"/>
<path d="M296.23 148.67V115.55H295.84L296.02 115.34L296.36 114.98C296.447 114.877 296.544 114.783 296.65 114.7L297.22 114.16V114.59H331.89V121.16L331.75 147.84L331.82 147.91L331.71 148.19C331.672 148.282 331.61 148.361 331.53 148.42L331.43 148.47L331.09 148.61L331.02 148.52H327.34H321.86L296.23 148.67ZM297.57 147.33L330.68 147.48V145.62V138.95L330.6 115.95H297.67L297.57 147.33Z" fill="black"/>
</g>
<path d="M291.2 98.46C292.691 98.46 293.9 97.2512 293.9 95.76C293.9 94.2688 292.691 93.06 291.2 93.06C289.709 93.06 288.5 94.2688 288.5 95.76C288.5 97.2512 289.709 98.46 291.2 98.46Z" fill="#455A64"/>
<path d="M291.2 99C290.565 99 289.945 98.8118 289.417 98.459C288.889 98.1063 288.477 97.605 288.234 97.0184C287.991 96.4319 287.928 95.7865 288.052 95.1638C288.176 94.5411 288.481 93.9691 288.93 93.5202C289.379 93.0713 289.951 92.7656 290.574 92.6417C291.196 92.5178 291.842 92.5814 292.428 92.8244C293.015 93.0673 293.516 93.4788 293.869 94.0066C294.222 94.5345 294.41 95.1551 294.41 95.79C294.41 96.6414 294.072 97.4578 293.47 98.0598C292.868 98.6618 292.051 99 291.2 99ZM291.2 93.59C290.762 93.59 290.335 93.7199 289.971 93.9632C289.608 94.2065 289.324 94.5522 289.157 94.9566C288.99 95.361 288.947 95.8059 289.033 96.2349C289.119 96.6638 289.331 97.0576 289.641 97.3663C289.951 97.6749 290.346 97.8846 290.775 97.9688C291.204 98.0529 291.649 98.0077 292.053 97.8389C292.456 97.6701 292.801 97.3853 293.042 97.0205C293.284 96.6558 293.412 96.2275 293.41 95.79C293.414 95.4978 293.36 95.2076 293.25 94.9366C293.141 94.6655 292.979 94.419 292.773 94.2114C292.567 94.0038 292.322 93.8392 292.052 93.7274C291.782 93.6156 291.492 93.5587 291.2 93.56V93.59Z" fill="black"/>
<path d="M380.4 124.4C380.4 124.55 373.56 124.66 365.13 124.66C356.7 124.66 349.86 124.55 349.86 124.4C349.86 124.25 356.7 124.14 365.13 124.14C373.56 124.14 380.4 124.26 380.4 124.4Z" fill="black"/>
<path d="M99.5015 226.08L70.8261 238.093C67.3724 239.54 65.7455 243.512 67.1924 246.966L97.3191 318.88C98.7659 322.334 102.739 323.961 106.192 322.514L134.868 310.501C138.321 309.055 139.948 305.082 138.501 301.628L108.375 229.714C106.928 226.26 102.955 224.633 99.5015 226.08Z" fill="#263238"/>
<path d="M100.52 228.65L95 231C94.8185 231.081 94.6549 231.197 94.5184 231.342C94.3819 231.486 94.2753 231.656 94.2047 231.842C94.1341 232.028 94.1008 232.226 94.1069 232.425C94.113 232.623 94.1582 232.819 94.24 233L94.67 234C94.7532 234.181 94.7995 234.377 94.8062 234.576C94.813 234.775 94.78 234.973 94.7093 235.159C94.6385 235.345 94.5314 235.516 94.3942 235.66C94.257 235.804 94.0924 235.92 93.91 236L83 240.49C82.8133 240.569 82.6126 240.61 82.4097 240.61C82.2069 240.61 82.0062 240.569 81.8195 240.49C81.6329 240.41 81.4641 240.294 81.3233 240.148C81.1825 240.002 81.0725 239.829 81 239.64L80.58 238.64C80.5083 238.457 80.4011 238.29 80.2647 238.149C80.1282 238.007 79.9651 237.894 79.7848 237.816C79.6045 237.738 79.4105 237.697 79.214 237.694C79.0176 237.691 78.8225 237.727 78.64 237.8L76.64 238.61L71.77 240.61C70.61 241.1 69.6914 242.03 69.2153 243.195C68.7393 244.361 68.7446 245.668 69.23 246.83L98.66 317.02C99.15 318.178 100.078 319.094 101.241 319.57C102.405 320.046 103.709 320.042 104.87 319.56L133.5 307.56C134.662 307.072 135.583 306.143 136.061 304.977C136.539 303.811 136.535 302.503 136.05 301.34L106.61 231.15C106.114 230.027 105.204 229.14 104.068 228.674C102.933 228.208 101.661 228.199 100.52 228.65Z" fill="#FAFAFA"/>
<path d="M104.43 235.56C104.43 235.56 103.72 235.9 102.83 236.29C101.94 236.68 101.22 236.96 101.21 236.94C101.2 236.92 101.91 236.6 102.8 236.22C103.69 235.84 104.42 235.54 104.43 235.56Z" fill="#263238"/>
<path d="M104.78 236.38C104.263 236.65 103.732 236.893 103.19 237.11C102.3 237.49 101.57 237.78 101.56 237.77C101.55 237.76 102.27 237.42 103.16 237.04C104.05 236.66 104.77 236.37 104.78 236.38Z" fill="#263238"/>
<path d="M105.14 237.21C105.14 237.21 104.43 237.55 103.54 237.93C102.65 238.31 101.92 238.61 101.92 238.59C101.92 238.57 102.62 238.25 103.51 237.86C104.4 237.47 105.13 237.19 105.14 237.21Z" fill="#263238"/>
<path d="M76.1301 250.49C76.1301 250.49 76.1301 250.49 76.2001 250.49L76.3801 250.41L77.0701 250.1L76.8501 249.6C76.8005 249.508 76.7603 249.41 76.7301 249.31C76.7178 249.25 76.7247 249.188 76.7498 249.132C76.775 249.077 76.8171 249.03 76.8701 249L77.2001 248.86C77.2688 248.845 77.3406 248.855 77.4027 248.888C77.4648 248.921 77.5135 248.975 77.5401 249.04L77.8501 249.76L78.7101 249.39L78.2501 248.31L78.1301 248.03C78.1079 247.991 78.0776 247.958 78.0414 247.932C78.0052 247.906 77.9638 247.888 77.9201 247.88L77.3801 247.66L76.8701 247.45L76.6101 247.35C76.5401 247.311 76.46 247.293 76.3801 247.3C76.3412 247.304 76.3038 247.317 76.2708 247.337C76.2378 247.358 76.2102 247.387 76.1901 247.42C76.1901 247.48 76.1301 247.57 76.1001 247.64L75.9201 248.09C75.8101 248.38 75.6801 248.65 75.6101 248.89C75.5401 249.13 75.6101 249.12 75.7001 249.23L75.8301 249.54L76.0301 250.03L76.1601 250.35C76.1651 250.39 76.1651 250.43 76.1601 250.47C76.1642 250.433 76.1642 250.397 76.1601 250.36L76.0201 250.06C75.9601 249.92 75.8901 249.75 75.8001 249.56L75.6701 249.25L75.5901 249.08C75.5796 249.014 75.5796 248.946 75.5901 248.88C75.6701 248.62 75.7901 248.36 75.9001 248.07L76.0801 247.62C76.1066 247.537 76.14 247.457 76.1801 247.38C76.203 247.338 76.236 247.302 76.2762 247.276C76.3163 247.25 76.3623 247.234 76.4101 247.23C76.504 247.224 76.5977 247.244 76.6801 247.29L76.9301 247.39L77.4501 247.6L77.9901 247.81L78.1301 247.87C78.1747 247.906 78.212 247.95 78.2401 248L78.3601 248.28L78.8201 249.36L77.9501 249.73L77.6401 249C77.6167 248.95 77.5776 248.91 77.5288 248.884C77.48 248.859 77.4242 248.85 77.3701 248.86L77.0601 249C77.0164 249.021 76.9809 249.056 76.9592 249.1C76.9375 249.143 76.9308 249.192 76.9401 249.24C76.9401 249.33 77.0201 249.43 77.0501 249.52L77.2601 250.02L76.5601 250.31L76.3801 250.38L76.1301 250.49Z" fill="#263238"/>
<path d="M107.17 249.13L107.34 249.04C107.504 248.953 107.658 248.849 107.8 248.73C108.031 248.538 108.225 248.304 108.37 248.04C108.578 247.681 108.692 247.275 108.7 246.86C108.703 246.617 108.673 246.375 108.61 246.14C108.528 245.881 108.431 245.628 108.32 245.38C108.216 245.106 108.089 244.842 107.94 244.59C107.773 244.321 107.556 244.087 107.3 243.9C107.015 243.693 106.69 243.548 106.345 243.474C106.001 243.4 105.645 243.398 105.3 243.47C104.93 243.578 104.568 243.715 104.22 243.88L103.09 244.35C96.94 247 88.43 250.52 79 254.47C78.4265 254.717 77.9663 255.17 77.71 255.74C77.4533 256.299 77.4176 256.935 77.61 257.52C77.7 257.81 77.84 258.09 77.95 258.38C78.0585 258.663 78.2067 258.929 78.39 259.17C78.7642 259.63 79.2879 259.945 79.87 260.06C80.1608 260.115 80.4592 260.115 80.75 260.06C81.0336 260 81.3089 259.906 81.57 259.78L83.19 259.1L86.32 257.79L97.15 253.26L104.45 250.26L106.45 249.44L106.97 249.23L107.15 249.16L106.98 249.24L106.46 249.46L104.46 250.3L97.17 253.38L86.35 257.94L83.23 259.25L81.61 259.93C81.3401 260.062 81.0545 260.16 80.76 260.22C80.4558 260.275 80.1442 260.275 79.84 260.22C79.2246 260.102 78.6715 259.769 78.28 259.28C78.0859 259.033 77.9338 258.756 77.83 258.46C77.72 258.18 77.58 257.9 77.48 257.6C77.2837 256.979 77.3255 256.308 77.5972 255.716C77.869 255.125 78.3512 254.655 78.95 254.4L103.03 244.31L104.16 243.84C104.513 243.679 104.877 243.545 105.25 243.44C105.596 243.376 105.951 243.382 106.295 243.457C106.638 243.533 106.963 243.677 107.25 243.88C107.51 244.076 107.733 244.316 107.91 244.59C108.052 244.851 108.176 245.122 108.28 245.4C108.398 245.648 108.495 245.906 108.57 246.17C108.633 246.408 108.663 246.654 108.66 246.9C108.646 247.323 108.525 247.736 108.31 248.1C108.158 248.362 107.962 248.596 107.73 248.79C107.582 248.908 107.421 249.009 107.25 249.09L107.17 249.13Z" fill="#263238"/>
<path d="M106.42 246C106.42 246 106.42 245.92 106.27 245.79C106.119 245.603 105.912 245.47 105.68 245.41C105.505 245.366 105.322 245.367 105.147 245.413C104.972 245.458 104.812 245.547 104.68 245.67C104.5 245.804 104.369 245.994 104.31 246.211C104.251 246.428 104.267 246.658 104.355 246.865C104.442 247.071 104.597 247.242 104.794 247.35C104.991 247.458 105.219 247.497 105.44 247.46C105.612 247.449 105.779 247.397 105.927 247.308C106.075 247.22 106.199 247.097 106.29 246.95C106.415 246.747 106.468 246.507 106.44 246.27C106.44 246.1 106.38 246.01 106.44 246C106.444 246.023 106.444 246.047 106.44 246.07C106.467 246.131 106.488 246.195 106.5 246.26C106.542 246.51 106.499 246.767 106.38 246.99C106.286 247.157 106.152 247.298 105.989 247.399C105.827 247.501 105.641 247.559 105.45 247.57C105.215 247.58 104.982 247.518 104.782 247.393C104.582 247.268 104.425 247.086 104.33 246.87C104.248 246.673 104.222 246.457 104.257 246.247C104.291 246.036 104.384 245.839 104.525 245.679C104.665 245.518 104.848 245.401 105.052 245.339C105.257 245.277 105.474 245.274 105.68 245.33C105.927 245.398 106.143 245.55 106.29 245.76C106.332 245.813 106.363 245.875 106.38 245.94C106.398 245.956 106.412 245.977 106.42 246Z" fill="#263238"/>
<path d="M107.7 247.53C107.461 247.485 107.231 247.401 107.02 247.28C106.792 247.199 106.579 247.08 106.39 246.93C106.628 246.972 106.858 247.053 107.07 247.17C107.43 247.34 107.72 247.49 107.7 247.53Z" fill="#263238"/>
<path d="M81.72 255.89L81.17 256.12V255.98L82.42 255.45L82.48 255.59L81.93 255.82L82.52 257.23L82.36 257.3L81.72 255.89Z" fill="#263238"/>
<path d="M83.91 256L82.91 256.41C82.9658 256.521 83.0635 256.606 83.1816 256.645C83.2997 256.685 83.4286 256.676 83.54 256.62C83.6071 256.594 83.6678 256.553 83.7178 256.502C83.7679 256.45 83.8062 256.388 83.83 256.32L83.96 256.38C83.9316 256.467 83.8835 256.547 83.8193 256.613C83.7551 256.679 83.6767 256.729 83.59 256.76C83.5117 256.798 83.4265 256.819 83.3398 256.822C83.253 256.825 83.1665 256.81 83.0857 256.778C83.005 256.746 82.9317 256.698 82.8705 256.636C82.8093 256.575 82.7615 256.501 82.73 256.42C82.7025 256.343 82.6903 256.262 82.6942 256.18C82.6981 256.099 82.7181 256.019 82.7529 255.945C82.7877 255.871 82.8367 255.805 82.8971 255.75C82.9576 255.695 83.0282 255.653 83.105 255.625C83.1819 255.597 83.2634 255.585 83.3449 255.589C83.4264 255.593 83.5064 255.613 83.5802 255.648C83.654 255.683 83.7203 255.732 83.7751 255.792C83.83 255.853 83.8725 255.923 83.9 256C83.9034 256 83.9067 256 83.91 256ZM82.91 256.29L83.74 255.94C83.6902 255.836 83.6015 255.756 83.493 255.716C83.3845 255.677 83.2649 255.682 83.16 255.73C83.1048 255.748 83.0537 255.777 83.0099 255.815C82.9661 255.853 82.9306 255.9 82.9053 255.952C82.8801 256.005 82.8657 256.062 82.8631 256.12C82.8605 256.178 82.8696 256.236 82.89 256.29H82.91Z" fill="#263238"/>
<path d="M85.17 256.1L84.59 255.77L84.43 256.41L84.25 256.48L84.46 255.69L83.78 255.31L83.96 255.24L84.5 255.55L84.66 254.94L84.83 254.87L84.63 255.62L85.35 256.02L85.17 256.1Z" fill="#263238"/>
<path d="M86.19 255.59C86.1423 255.672 86.0683 255.735 85.98 255.77C85.937 255.795 85.8889 255.809 85.8395 255.813C85.79 255.817 85.7403 255.809 85.6942 255.791C85.6481 255.772 85.6067 255.744 85.5731 255.708C85.5394 255.671 85.5145 255.627 85.5 255.58L85.2 254.87L85 255V254.87L85.21 254.78L85.1 254.52L85.26 254.46L85.36 254.71L85.72 254.56V254.7L85.37 254.85L85.66 255.54C85.667 255.57 85.6809 255.598 85.7005 255.622C85.72 255.645 85.7448 255.664 85.7729 255.677C85.8009 255.689 85.8315 255.695 85.8622 255.694C85.8929 255.693 85.923 255.685 85.95 255.67C86.0125 255.644 86.065 255.598 86.1 255.54L86.19 255.59Z" fill="#263238"/>
<path d="M88.8957 262.222L82.2195 265.023L85.0204 271.699L91.6967 268.898L88.8957 262.222Z" fill="#263238"/>
<path d="M88.8957 262.222L82.2195 265.023L85.0204 271.699L91.6967 268.898L88.8957 262.222Z" fill="#E63462"/>
<path d="M102 257.5C102 257.5 99.79 258.5 97 259.65C94.21 260.8 92 261.72 92 261.65C92 261.58 94.21 260.65 97 259.5C99.79 258.35 102 257.47 102 257.5Z" fill="#263238"/>
<path d="M110.84 256.21C110.84 256.21 106.84 257.95 101.9 260.03C96.96 262.11 92.9 263.77 92.9 263.73C92.9 263.69 96.9 261.99 101.84 259.92C106.78 257.85 110.83 256.18 110.84 256.21Z" fill="#263238"/>
<path d="M111.24 257.76C111.24 257.76 107.3 259.48 102.41 261.54C97.5201 263.6 93.54 265.23 93.53 265.2C93.52 265.17 97.4701 263.48 102.36 261.42C107.25 259.36 111.23 257.73 111.24 257.76Z" fill="#263238"/>
<path d="M104.57 262.2C104.57 262.2 102.25 263.2 99.37 264.45C96.49 265.7 94.12 266.62 94.11 266.59C94.1 266.56 96.43 265.59 99.32 264.34C102.21 263.09 104.56 262.17 104.57 262.2Z" fill="#263238"/>
<path d="M93.5401 273.31L86.8639 276.111L89.6648 282.787L96.3411 279.986L93.5401 273.31Z" fill="#E63462"/>
<path d="M106.7 268.63C106.7 268.63 104.49 269.63 101.7 270.78C98.9101 271.93 96.7001 272.85 96.7001 272.78C96.7001 272.71 98.9101 271.78 101.7 270.63C104.49 269.48 106.68 268.6 106.7 268.63Z" fill="#263238"/>
<path d="M115.51 267.34C115.51 267.34 111.51 269.08 106.57 271.16C101.63 273.24 97.5701 274.89 97.5701 274.86C97.5701 274.83 101.57 273.12 106.51 271.04C111.45 268.96 115.5 267.31 115.51 267.34Z" fill="#263238"/>
<path d="M115.91 268.89C115.91 268.89 111.97 270.61 107.08 272.66C102.19 274.71 98.21 276.36 98.19 276.32C98.17 276.28 102.19 274.6 107.03 272.55C111.87 270.5 115.9 268.86 115.91 268.89Z" fill="#263238"/>
<path d="M109.24 273.33C109.24 273.33 106.92 274.33 104.03 275.58C101.14 276.83 98.7901 277.75 98.7801 277.72C98.7701 277.69 101.1 276.72 103.99 275.47C106.88 274.22 109.23 273.3 109.24 273.33Z" fill="#263238"/>
<path d="M98.2124 284.437L91.5361 287.238L94.3371 293.914L101.013 291.113L98.2124 284.437Z" fill="#E63462"/>
<path d="M111.37 279.76C111.37 279.76 109.16 280.76 106.37 281.91C103.58 283.06 101.37 283.97 101.37 283.91C101.37 283.85 103.58 282.91 106.37 281.76C109.16 280.61 111.35 279.72 111.37 279.76Z" fill="#263238"/>
<path d="M120.18 278.47C120.18 278.47 116.18 280.21 111.24 282.28C106.3 284.35 102.24 286.02 102.24 285.99C102.24 285.96 106.24 284.25 111.18 282.17C116.12 280.09 120.17 278.43 120.18 278.47Z" fill="#263238"/>
<path d="M120.58 280C120.58 280 116.64 281.72 111.75 283.77C106.86 285.82 102.88 287.46 102.86 287.43C102.84 287.4 106.8 285.71 111.7 283.66C116.6 281.61 120.57 280 120.58 280Z" fill="#263238"/>
<path d="M113.91 284.46C113.91 284.46 111.59 285.46 108.7 286.71C105.81 287.96 103.46 288.88 103.45 288.85C103.44 288.82 105.77 287.85 108.66 286.59C111.55 285.33 113.9 284.42 113.91 284.46Z" fill="#263238"/>
<path d="M102.881 295.554L96.2046 298.355L99.0055 305.031L105.682 302.23L102.881 295.554Z" fill="#E63462"/>
<path d="M116 290.88C116 290.88 113.8 291.88 111 293.03C108.2 294.18 106 295.1 106 295.03C106 294.96 108.21 294.03 111 292.88C113.79 291.73 116 290.85 116 290.88Z" fill="#263238"/>
<path d="M124.85 289.59C124.85 289.59 120.85 291.33 115.91 293.41C110.97 295.49 106.91 297.15 106.91 297.12C106.91 297.09 110.91 295.38 115.85 293.3C120.79 291.22 124.83 289.56 124.85 289.59Z" fill="#263238"/>
<path d="M125.25 291.14C125.25 291.14 121.31 292.86 116.42 294.92C111.53 296.98 107.54 298.61 107.53 298.58C107.52 298.55 111.47 296.86 116.37 294.8C121.27 292.74 125.24 291.11 125.25 291.14Z" fill="#263238"/>
<path d="M118.58 295.58C118.58 295.58 116.26 296.58 113.37 297.83C110.48 299.08 108.13 300 108.12 299.97C108.11 299.94 110.43 298.97 113.32 297.72C116.21 296.47 118.57 295.55 118.58 295.58Z" fill="#263238"/>
<path d="M107.534 306.695L100.858 309.496L103.659 316.172L110.335 313.371L107.534 306.695Z" fill="#E0E0E0"/>
<path d="M120.7 302C120.7 302 118.49 303 115.7 304.15C112.91 305.3 110.7 306.22 110.7 306.15C110.7 306.08 112.91 305.15 115.7 304C118.49 302.85 120.69 302 120.7 302Z" fill="#E0E0E0"/>
<path d="M129.52 300.72C129.52 300.72 125.52 302.46 120.58 304.54C115.64 306.62 111.58 308.27 111.58 308.24C111.58 308.21 115.58 306.5 120.52 304.42C125.46 302.34 129.5 300.69 129.52 300.72Z" fill="#E0E0E0"/>
<path d="M129.92 302.27C129.92 302.27 126 304 121.08 306C116.16 308 112.21 309.7 112.2 309.67C112.19 309.64 116.14 307.94 121.04 305.89C125.94 303.84 129.91 302.24 129.92 302.27Z" fill="#E0E0E0"/>
<path d="M123.25 306.71C123.25 306.71 120.93 307.71 118.04 308.96C115.15 310.21 112.8 311.13 112.79 311.1C112.78 311.07 115.1 310.1 117.99 308.85C120.88 307.6 123.23 306.68 123.25 306.71Z" fill="#E0E0E0"/>
<g opacity="0.3">
<path d="M102.902 295.612L96.2262 298.413L99.0271 305.089L105.703 302.288L102.902 295.612Z" fill="black"/>
</g>
<g opacity="0.3">
<path d="M93.5401 273.31L86.8639 276.111L89.6648 282.787L96.3411 279.986L93.5401 273.31Z" fill="black"/>
</g>
</svg>
