<svg width="500" height="500" viewBox="0 0 500 500" fill="none" xmlns="http://www.w3.org/2000/svg">
<path d="M461 208.15C461 208.15 397 52 280 21.89C163 -8.21998 113.93 83.89 96 147.89C78.07 211.89 12 296.44 18 354.58C23.7 409.84 72.13 435.97 117.36 447.19C174.85 461.44 240.18 462.52 297.88 450.64C311.599 447.739 325.144 444.067 338.45 439.64C365.56 430.8 392.17 423.95 419.63 416.64C471.87 402.71 492.57 346.64 486.68 292.9C483.36 262.69 472.29 235.65 461 208.15Z" fill="#F2F0F0"/>
<path opacity="0.7" d="M458.384 211.142C458.384 211.142 394.384 54.9922 277.384 24.8822C160.384 -5.2278 111.314 86.8822 93.3838 150.882C75.4538 214.882 9.38379 299.432 15.3838 357.572C21.0838 412.832 69.5138 438.962 114.744 450.182C172.234 464.432 237.564 465.512 295.264 453.632C308.983 450.731 322.528 447.059 335.834 442.632C362.944 433.792 389.554 426.942 417.014 419.632C469.254 405.702 489.954 349.632 484.064 295.892C480.744 265.682 469.674 238.642 458.384 211.142Z" fill="#F2F0F0"/>
<path d="M425.75 37.21H240.25V294.05H425.75V37.21Z" stroke="#263238" stroke-linecap="round" stroke-linejoin="round"/>
<path d="M333 37.36V294.95" stroke="#263238" stroke-linecap="round" stroke-linejoin="round"/>
<path d="M425.91 166.16H240.1" stroke="#263238" stroke-linecap="round" stroke-linejoin="round"/>
<path d="M425.91 101.66H240.1" stroke="#263238" stroke-linecap="round" stroke-linejoin="round"/>
<path d="M425.91 230.66H240.1" stroke="#263238" stroke-linecap="round" stroke-linejoin="round"/>
<path d="M392.1 131.43L374.02 148.81" stroke="#263238" stroke-linecap="round" stroke-linejoin="round"/>
<path d="M418.99 105.57L397.39 126.34" stroke="#263238" stroke-linecap="round" stroke-linejoin="round"/>
<path d="M372.71 140.53L366.97 146.05" stroke="#263238" stroke-linecap="round" stroke-linejoin="round"/>
<path d="M397.37 116.81L376.66 136.72" stroke="#263238" stroke-linecap="round" stroke-linejoin="round"/>
<path d="M291.78 72.62L273.7 90" stroke="#263238" stroke-linecap="round" stroke-linejoin="round"/>
<path d="M318.67 46.76L297.07 67.54" stroke="#263238" stroke-linecap="round" stroke-linejoin="round"/>
<path d="M272.39 81.72L266.65 87.24" stroke="#263238" stroke-linecap="round" stroke-linejoin="round"/>
<path d="M297.05 58.01L276.34 77.91" stroke="#263238" stroke-linecap="round" stroke-linejoin="round"/>
<path d="M387.77 199.75L369.7 217.13" stroke="#263238" stroke-linecap="round" stroke-linejoin="round"/>
<path d="M414.67 173.89L393.06 194.67" stroke="#263238" stroke-linecap="round" stroke-linejoin="round"/>
<path d="M368.38 208.85L362.64 214.37" stroke="#263238" stroke-linecap="round" stroke-linejoin="round"/>
<path d="M393.05 185.14L372.34 205.04" stroke="#263238" stroke-linecap="round" stroke-linejoin="round"/>
<path d="M395.93 269.85L395.15 263.17C395.15 263.17 391.6 263.37 390.23 260.28C389.4 258.41 388.56 254.62 389.78 252.75C390.136 252.166 390.654 251.698 391.271 251.404C391.888 251.109 392.578 251.001 393.256 251.092C393.934 251.183 394.57 251.47 395.088 251.917C395.605 252.364 395.981 252.953 396.17 253.61C397.12 256.32 397.59 257.48 397.59 257.48C397.36 253.55 394.4 237.72 403.31 240.13C406.93 241.13 407.92 244.61 408.08 247.37C408.24 250.13 407.87 257.28 407.87 257.28C407.87 257.28 410.26 257.54 410.42 253.57C410.58 249.6 414.42 247.8 416.13 249.68C417.84 251.56 418.61 258.24 416.75 260.33C414.89 262.42 409 263.15 409 263.15L409.39 269.86L395.93 269.85Z" fill="#E63462" stroke="#263238" stroke-linecap="round" stroke-linejoin="round"/>
<path d="M401.05 241.23C401.05 241.23 399.58 242.57 399.98 247.13C400.38 251.69 400.38 259.85 400.38 259.85" stroke="#263238" stroke-width="0.5" stroke-linecap="round" stroke-linejoin="round"/>
<path d="M404.94 244.31C404.94 244.31 406.68 244.05 406.14 248.2C405.849 251.674 405.849 255.166 406.14 258.64" stroke="#263238" stroke-width="0.5" stroke-linecap="round" stroke-linejoin="round"/>
<path d="M392.34 253.15C392.34 253.15 390.6 253.55 391.41 256.37C392.22 259.19 392.48 261.32 394.35 261.73C395.187 261.938 396.04 262.071 396.9 262.13L397.17 265.07" stroke="#263238" stroke-width="0.5" stroke-linecap="round" stroke-linejoin="round"/>
<path d="M409.22 261.59C409.22 261.59 414.71 261.73 415.78 259.45C416.85 257.17 416.19 253.29 416.19 253.29" stroke="#263238" stroke-width="0.5" stroke-linecap="round" stroke-linejoin="round"/>
<path d="M394.62 253.89C394.62 253.983 394.592 254.074 394.541 254.151C394.489 254.228 394.416 254.289 394.33 254.324C394.244 254.36 394.149 254.369 394.058 254.351C393.967 254.333 393.883 254.288 393.818 254.222C393.752 254.157 393.707 254.073 393.689 253.982C393.671 253.891 393.68 253.796 393.716 253.71C393.751 253.624 393.812 253.551 393.889 253.499C393.966 253.448 394.057 253.42 394.15 253.42C394.212 253.42 394.273 253.432 394.33 253.456C394.387 253.479 394.439 253.514 394.482 253.558C394.526 253.601 394.561 253.653 394.584 253.71C394.608 253.767 394.62 253.828 394.62 253.89V253.89Z" stroke="#263238" stroke-width="0.5" stroke-linecap="round" stroke-linejoin="round"/>
<path d="M395.76 259.78C396.02 259.78 396.23 259.57 396.23 259.31C396.23 259.05 396.02 258.84 395.76 258.84C395.5 258.84 395.29 259.05 395.29 259.31C395.29 259.57 395.5 259.78 395.76 259.78Z" stroke="#263238" stroke-width="0.5" stroke-linecap="round" stroke-linejoin="round"/>
<path d="M393.42 257.57C393.68 257.57 393.89 257.36 393.89 257.1C393.89 256.84 393.68 256.63 393.42 256.63C393.16 256.63 392.95 256.84 392.95 257.1C392.95 257.36 393.16 257.57 393.42 257.57Z" stroke="#263238" stroke-width="0.5" stroke-linecap="round" stroke-linejoin="round"/>
<path d="M402.93 252.02C403.19 252.02 403.4 251.81 403.4 251.55C403.4 251.29 403.19 251.08 402.93 251.08C402.67 251.08 402.46 251.29 402.46 251.55C402.46 251.81 402.67 252.02 402.93 252.02Z" stroke="#263238" stroke-width="0.5" stroke-linecap="round" stroke-linejoin="round"/>
<path d="M398.51 247.46C398.77 247.46 398.98 247.25 398.98 246.99C398.98 246.73 398.77 246.52 398.51 246.52C398.25 246.52 398.04 246.73 398.04 246.99C398.04 247.25 398.25 247.46 398.51 247.46Z" stroke="#263238" stroke-width="0.5" stroke-linecap="round" stroke-linejoin="round"/>
<path d="M404.94 263.33C404.94 263.423 404.912 263.514 404.861 263.591C404.809 263.668 404.736 263.729 404.65 263.764C404.564 263.8 404.469 263.809 404.378 263.791C404.287 263.773 404.203 263.728 404.138 263.662C404.072 263.597 404.027 263.513 404.009 263.422C403.991 263.331 404 263.236 404.036 263.15C404.071 263.064 404.132 262.991 404.209 262.939C404.286 262.888 404.377 262.86 404.47 262.86C404.595 262.86 404.714 262.91 404.802 262.998C404.89 263.086 404.94 263.205 404.94 263.33V263.33Z" stroke="#263238" stroke-width="0.5" stroke-linecap="round" stroke-linejoin="round"/>
<path d="M399.85 262.66C399.85 262.753 399.822 262.844 399.771 262.921C399.719 262.998 399.646 263.059 399.56 263.094C399.474 263.13 399.379 263.139 399.288 263.121C399.197 263.103 399.113 263.058 399.048 262.992C398.982 262.927 398.937 262.843 398.919 262.752C398.901 262.661 398.91 262.566 398.946 262.48C398.981 262.394 399.042 262.321 399.119 262.269C399.196 262.218 399.287 262.19 399.38 262.19C399.505 262.19 399.624 262.24 399.712 262.328C399.8 262.416 399.85 262.535 399.85 262.66V262.66Z" stroke="#263238" stroke-width="0.5" stroke-linecap="round" stroke-linejoin="round"/>
<path d="M403.73 243.18C403.99 243.18 404.2 242.97 404.2 242.71C404.2 242.45 403.99 242.24 403.73 242.24C403.47 242.24 403.26 242.45 403.26 242.71C403.26 242.97 403.47 243.18 403.73 243.18Z" stroke="#263238" stroke-width="0.5" stroke-linecap="round" stroke-linejoin="round"/>
<path d="M413.71 251.61C413.71 251.703 413.682 251.794 413.631 251.871C413.579 251.948 413.506 252.009 413.42 252.044C413.334 252.08 413.239 252.089 413.148 252.071C413.057 252.053 412.973 252.008 412.908 251.942C412.842 251.877 412.797 251.793 412.779 251.702C412.761 251.611 412.77 251.516 412.806 251.43C412.841 251.344 412.902 251.271 412.979 251.219C413.056 251.168 413.147 251.14 413.24 251.14C413.365 251.14 413.484 251.19 413.572 251.278C413.66 251.366 413.71 251.485 413.71 251.61V251.61Z" stroke="#263238" stroke-width="0.5" stroke-linecap="round" stroke-linejoin="round"/>
<path d="M412.03 258.45C412.29 258.45 412.5 258.24 412.5 257.98C412.5 257.72 412.29 257.51 412.03 257.51C411.77 257.51 411.56 257.72 411.56 257.98C411.56 258.24 411.77 258.45 412.03 258.45Z" stroke="#263238" stroke-width="0.5" stroke-linecap="round" stroke-linejoin="round"/>
<path d="M403.73 258.31C403.99 258.31 404.2 258.1 404.2 257.84C404.2 257.58 403.99 257.37 403.73 257.37C403.47 257.37 403.26 257.58 403.26 257.84C403.26 258.1 403.47 258.31 403.73 258.31Z" stroke="#263238" stroke-width="0.5" stroke-linecap="round" stroke-linejoin="round"/>
<path d="M414.4 265.52H390.3L392.71 285.28H411.99L414.4 265.52Z" fill="white" stroke="#263238" stroke-linecap="round" stroke-linejoin="round"/>
<path d="M55.65 229.09L74.1 405.82" stroke="#263238" stroke-width="2" stroke-miterlimit="10"/>
<path d="M71.12 372L62.76 363.17" stroke="#263238" stroke-width="2" stroke-miterlimit="10"/>
<path d="M65.3 365.81C65.2872 364.461 64.9861 363.131 64.4169 361.908C63.8478 360.685 63.0237 359.598 62 358.72C59.86 356.8 48.56 352.05 47.49 356.03C46.29 360.36 57.86 368.86 65.3 365.81Z" fill="#E63462" stroke="#263238" stroke-miterlimit="10"/>
<path d="M65.3 365.81L54.55 359.11" stroke="#263238" stroke-width="0.5" stroke-miterlimit="10"/>
<path d="M73.22 392.1L64.86 383.27" stroke="#263238" stroke-width="2" stroke-miterlimit="10"/>
<path d="M67.4 385.91C67.3835 384.559 67.0777 383.227 66.5033 382.004C65.9289 380.781 65.0992 379.695 64.07 378.82C61.93 376.9 50.63 372.15 49.56 376.13C48.39 380.46 60 389 67.4 385.91Z" fill="#E63462" stroke="#263238" stroke-miterlimit="10"/>
<path d="M67.4 385.91L56.65 379.21" stroke="#263238" stroke-width="0.5" stroke-miterlimit="10"/>
<path d="M66 322.95L57.64 314.12" stroke="#263238" stroke-width="2" stroke-miterlimit="10"/>
<path d="M60.18 316.77C60.1642 315.418 59.8598 314.086 59.2872 312.861C58.7147 311.637 57.8871 310.549 56.86 309.67C54.71 307.76 43.41 303 42.34 307C41.18 311.31 52.74 319.81 60.18 316.77Z" fill="#E63462" stroke="#263238" stroke-miterlimit="10"/>
<path d="M60.18 316.77L49.43 310.07" stroke="#263238" stroke-width="0.5" stroke-miterlimit="10"/>
<path d="M68.1 343.05L59.74 334.22" stroke="#263238" stroke-width="2" stroke-miterlimit="10"/>
<path d="M62.28 336.87C62.2636 335.517 61.9579 334.184 61.3836 332.96C60.8092 331.735 59.9794 330.647 58.95 329.77C56.81 327.86 45.51 323.11 44.44 327.08C43.27 331.41 54.83 339.91 62.28 336.87Z" fill="#E63462" stroke="#263238" stroke-miterlimit="10"/>
<path d="M62.28 336.87L51.53 330.17" stroke="#263238" stroke-width="0.5" stroke-miterlimit="10"/>
<path d="M62.6 290.3L54.24 281.47" stroke="#263238" stroke-width="2" stroke-miterlimit="10"/>
<path d="M56.78 284.12C56.761 282.768 56.4542 281.435 55.88 280.211C55.3059 278.987 54.4775 277.899 53.45 277.02C51.3 275.11 40.01 270.35 38.93 274.33C37.77 278.66 49.33 287.16 56.78 284.12Z" fill="#E63462" stroke="#263238" stroke-miterlimit="10"/>
<path d="M56.78 284.12L46.02 277.42" stroke="#263238" stroke-width="0.5" stroke-miterlimit="10"/>
<path d="M59.17 257.51L50.81 248.68" stroke="#263238" stroke-width="2" stroke-miterlimit="10"/>
<path d="M53.35 251.32C53.3303 249.968 53.0212 248.635 52.4433 247.412C51.8655 246.189 51.0323 245.104 50 244.23C47.85 242.31 36.55 237.56 35.48 241.54C34.35 245.87 45.91 254.36 53.35 251.32Z" fill="#E63462" stroke="#263238" stroke-miterlimit="10"/>
<path d="M53.35 251.32L42.6 244.62" stroke="#263238" stroke-width="0.5" stroke-miterlimit="10"/>
<path d="M69.72 360.11L76.08 349.74" stroke="#263238" stroke-width="2" stroke-miterlimit="10"/>
<path d="M74.14 352.85C73.8773 351.526 73.9012 350.161 74.2099 348.846C74.5187 347.532 75.1052 346.299 75.93 345.23C77.63 342.91 87.7 335.93 89.57 339.6C91.61 343.59 82.05 354.29 74.14 352.85Z" fill="#E63462" stroke="#263238" stroke-miterlimit="10"/>
<path d="M74.14 352.85L83.82 343.6" stroke="#263238" stroke-width="0.5" stroke-miterlimit="10"/>
<path d="M64.2 307.21L70.56 296.85" stroke="#263238" stroke-width="2" stroke-miterlimit="10"/>
<path d="M68.62 300C68.3572 298.674 68.3809 297.307 68.6896 295.991C68.9984 294.675 69.5849 293.441 70.41 292.37C72.11 290.05 82.18 283.07 84.05 286.74C86.09 290.7 76.53 301.4 68.62 300Z" fill="#E63462" stroke="#263238" stroke-miterlimit="10"/>
<path d="M68.62 299.96L78.3 290.7" stroke="#263238" stroke-width="0.5" stroke-miterlimit="10"/>
<path d="M61.77 283.97L68.13 273.6" stroke="#263238" stroke-width="2" stroke-miterlimit="10"/>
<path d="M66.19 276.72C65.9299 275.393 65.9569 274.025 66.2691 272.709C66.5813 271.393 67.1715 270.159 68 269.09C69.71 266.77 79.78 259.79 81.65 263.46C83.66 267.45 74.1 278.15 66.19 276.72Z" fill="#E63462" stroke="#263238" stroke-miterlimit="10"/>
<path d="M66.19 276.72L75.87 267.46" stroke="#263238" stroke-width="0.5" stroke-miterlimit="10"/>
<path d="M58.22 249.89L64.57 239.53" stroke="#263238" stroke-width="2" stroke-miterlimit="10"/>
<path d="M62.63 242.64C62.3679 241.313 62.3929 239.946 62.7034 238.63C63.0139 237.314 63.6026 236.08 64.43 235.01C66.13 232.69 76.2 225.71 78.07 229.38C80.1 233.38 70.55 244.08 62.63 242.64Z" fill="#E63462" stroke="#263238" stroke-miterlimit="10"/>
<path d="M62.63 242.64L72.32 233.38" stroke="#263238" stroke-width="0.5" stroke-miterlimit="10"/>
<path d="M55.5 228.11C55.2372 226.784 55.2609 225.417 55.5696 224.101C55.8784 222.785 56.4649 221.551 57.29 220.48C58.99 218.16 69.06 211.18 70.93 214.85C73 218.84 63.41 229.54 55.5 228.11Z" fill="#E63462" stroke="#263238" stroke-miterlimit="10"/>
<path d="M55.5 228.11L65.18 218.85" stroke="#263238" stroke-width="0.5" stroke-miterlimit="10"/>
<path d="M56.06 228.51C54.7133 228.629 53.3567 228.46 52.0807 228.013C50.8047 227.566 49.6385 226.853 48.66 225.92C46.53 223.99 40.66 213.24 44.49 211.76C48.68 210.16 58.32 220.79 56.06 228.51Z" fill="#E63462" stroke="#263238" stroke-miterlimit="10"/>
<path d="M56.06 228.51L47.87 217.91" stroke="#263238" stroke-width="0.5" stroke-miterlimit="10"/>
<path d="M104.3 253.43L85.96 430.17" stroke="#263238" stroke-width="2" stroke-miterlimit="10"/>
<path d="M90.01 396.46L83.65 386.1" stroke="#263238" stroke-width="2" stroke-miterlimit="10"/>
<path d="M85.59 389.21C85.8521 387.883 85.8271 386.516 85.5166 385.2C85.2061 383.884 84.6174 382.65 83.79 381.58C82.09 379.27 72.01 372.29 70.15 375.96C68.11 380 77.68 390.65 85.59 389.21Z" fill="#E63462" stroke="#263238" stroke-miterlimit="10"/>
<path d="M85.59 389.21L76.45 380.44" stroke="#263238" stroke-width="0.5" stroke-miterlimit="10"/>
<path d="M95.1 347.41L88.74 337.05" stroke="#263238" stroke-width="2" stroke-miterlimit="10"/>
<path d="M90.68 340.16C90.9421 338.833 90.9171 337.466 90.6066 336.15C90.2961 334.834 89.7074 333.6 88.88 332.53C87.18 330.22 77.1 323.24 75.24 326.91C73.2 330.91 82.77 341.6 90.68 340.16Z" fill="#E63462" stroke="#263238" stroke-miterlimit="10"/>
<path d="M90.68 340.16L81.54 331.39" stroke="#263238" stroke-width="0.5" stroke-miterlimit="10"/>
<path d="M93.02 367.51L86.65 357.15" stroke="#263238" stroke-width="2" stroke-miterlimit="10"/>
<path d="M88.59 360.26C88.8527 358.936 88.8288 357.57 88.5201 356.256C88.2113 354.942 87.6248 353.709 86.8 352.64C85.09 350.32 75.02 343.34 73.15 347.01C71.12 351 80.68 361.7 88.59 360.26Z" fill="#E63462" stroke="#263238" stroke-miterlimit="10"/>
<path d="M88.59 360.26L79.45 351.49" stroke="#263238" stroke-width="0.5" stroke-miterlimit="10"/>
<path d="M98.49 314.76L92.13 304.4" stroke="#263238" stroke-width="2" stroke-miterlimit="10"/>
<path d="M94.07 307.51C94.3328 306.183 94.3081 304.816 93.9976 303.5C93.687 302.184 93.098 300.949 92.27 299.88C90.57 297.56 80.49 290.59 78.62 294.26C76.59 298.25 86.16 309 94.07 307.51Z" fill="#E63462" stroke="#263238" stroke-miterlimit="10"/>
<path d="M94.07 307.51L84.93 298.74" stroke="#263238" stroke-width="0.5" stroke-miterlimit="10"/>
<path d="M101.89 281.96L95.53 271.6" stroke="#263238" stroke-width="2" stroke-miterlimit="10"/>
<path d="M97.47 274.71C97.7327 273.386 97.7088 272.02 97.4001 270.706C97.0913 269.392 96.5048 268.159 95.68 267.09C93.97 264.77 83.89 257.79 82.03 261.47C80 265.46 89.56 276.16 97.47 274.71Z" fill="#E63462" stroke="#263238" stroke-miterlimit="10"/>
<path d="M97.47 274.71L88.33 265.94" stroke="#263238" stroke-width="0.5" stroke-miterlimit="10"/>
<path d="M91.09 384.53L99.44 375.7" stroke="#263238" stroke-width="2" stroke-miterlimit="10"/>
<path d="M96.9 378.35C96.9164 376.997 97.2221 375.664 97.7964 374.44C98.3708 373.215 99.2006 372.127 100.23 371.25C102.37 369.33 113.67 364.58 114.74 368.55C115.91 372.88 104.35 381.38 96.9 378.35Z" fill="#E63462" stroke="#263238" stroke-miterlimit="10"/>
<path d="M96.9 378.35L108.29 371.28" stroke="#263238" stroke-width="0.5" stroke-miterlimit="10"/>
<path d="M96.58 331.64L104.93 322.8" stroke="#263238" stroke-width="2" stroke-miterlimit="10"/>
<path d="M102.39 325.45C102.406 324.099 102.711 322.767 103.286 321.544C103.86 320.321 104.69 319.235 105.72 318.36C107.86 316.44 119.15 311.68 120.23 315.66C121.4 320 109.84 328.49 102.39 325.45Z" fill="#E63462" stroke="#263238" stroke-miterlimit="10"/>
<path d="M102.39 325.45L113.77 318.39" stroke="#263238" stroke-width="0.5" stroke-miterlimit="10"/>
<path d="M98.99 308.39L107.34 299.56" stroke="#263238" stroke-width="2" stroke-miterlimit="10"/>
<path d="M104.81 302.2C104.823 300.849 105.127 299.517 105.699 298.294C106.272 297.071 107.101 295.985 108.13 295.11C110.27 293.19 121.57 288.43 122.64 292.41C123.81 296.74 112.25 305.24 104.81 302.2Z" fill="#E63462" stroke="#263238" stroke-miterlimit="10"/>
<path d="M104.81 302.2L116.19 295.14" stroke="#263238" stroke-width="0.5" stroke-miterlimit="10"/>
<path d="M102.52 274.31L110.88 265.48" stroke="#263238" stroke-width="2" stroke-miterlimit="10"/>
<path d="M108.34 268.13C108.356 266.777 108.662 265.444 109.236 264.219C109.811 262.995 110.641 261.907 111.67 261.03C113.81 259.11 125.1 254.35 126.18 258.33C127.35 262.66 115.79 271.16 108.34 268.13Z" fill="#E63462" stroke="#263238" stroke-miterlimit="10"/>
<path d="M108.34 268.13L119.72 261.06" stroke="#263238" stroke-width="0.5" stroke-miterlimit="10"/>
<path d="M104.35 252.43C104.366 251.08 104.67 249.749 105.243 248.526C105.816 247.303 106.643 246.217 107.67 245.34C109.82 243.42 121.11 238.66 122.18 242.64C123.35 247 111.8 255.47 104.35 252.43Z" fill="#E63462" stroke="#263238" stroke-miterlimit="10"/>
<path d="M104.35 252.43L115.73 245.37" stroke="#263238" stroke-width="0.5" stroke-miterlimit="10"/>
<path d="M104.82 252.94C103.477 252.782 102.184 252.339 101.027 251.641C99.8696 250.942 98.875 250.004 98.11 248.89C96.43 246.56 92.88 234.83 96.95 234.18C101.37 233.47 108.62 245.85 104.82 252.94Z" fill="#E63462" stroke="#263238" stroke-miterlimit="10"/>
<path d="M104.82 252.94L98.99 240.88" stroke="#263238" stroke-width="0.5" stroke-miterlimit="10"/>
<path d="M83.28 181.46V404.96" stroke="#263238" stroke-width="2" stroke-miterlimit="10"/>
<path d="M83.46 371.36L76.06 361.7" stroke="#263238" stroke-width="2" stroke-miterlimit="10"/>
<path d="M78.31 364.6C78.4356 363.255 78.2712 361.898 77.8279 360.621C77.3845 359.345 76.6726 358.178 75.74 357.2C73.8 355.07 63.06 349.2 61.58 353.02C60 357.2 70.59 366.85 78.31 364.6Z" fill="#E63462" stroke="#263238" stroke-miterlimit="10"/>
<path d="M78.31 364.6L68.31 356.82" stroke="#263238" stroke-width="0.5" stroke-miterlimit="10"/>
<path d="M83.46 329.35L76.06 319.7" stroke="#263238" stroke-width="2" stroke-miterlimit="10"/>
<path d="M78.31 322.6C78.4356 321.255 78.2712 319.898 77.8279 318.621C77.3845 317.345 76.6726 316.178 75.74 315.2C73.8 313.07 63.06 307.2 61.58 311.01C60 315.2 70.59 324.85 78.31 322.6Z" fill="#E63462" stroke="#263238" stroke-miterlimit="10"/>
<path d="M78.31 322.6L68.31 314.82" stroke="#263238" stroke-width="0.5" stroke-miterlimit="10"/>
<path d="M83.46 280.04L76.06 270.39" stroke="#263238" stroke-width="2" stroke-miterlimit="10"/>
<path d="M78.31 273.28C78.4356 271.934 78.2712 270.578 77.8279 269.301C77.3845 268.025 76.6726 266.858 75.74 265.88C73.8 263.75 63.06 257.88 61.58 261.7C60 265.88 70.59 275.53 78.31 273.28Z" fill="#E63462" stroke="#263238" stroke-miterlimit="10"/>
<path d="M78.31 273.28L68.31 265.5" stroke="#263238" stroke-width="0.5" stroke-miterlimit="10"/>
<path d="M83.46 247.21L76.06 237.56" stroke="#263238" stroke-width="2" stroke-miterlimit="10"/>
<path d="M78.31 240.45C78.4362 239.106 78.272 237.751 77.8285 236.476C77.3851 235.201 76.6729 234.036 75.74 233.06C73.8 230.93 63.06 225.06 61.58 228.87C60 233.06 70.59 242.71 78.31 240.45Z" fill="#E63462" stroke="#263238" stroke-miterlimit="10"/>
<path d="M78.31 240.45L68.31 232.67" stroke="#263238" stroke-width="0.5" stroke-miterlimit="10"/>
<path d="M83.46 214.24L76.06 204.59" stroke="#263238" stroke-width="2" stroke-miterlimit="10"/>
<path d="M78.31 207.48C78.4356 206.134 78.2712 204.778 77.8279 203.501C77.3845 202.225 76.6726 201.058 75.74 200.08C73.8 197.95 63.06 192.08 61.58 195.9C60 200.08 70.59 209.74 78.31 207.48Z" fill="#E63462" stroke="#263238" stroke-miterlimit="10"/>
<path d="M78.31 207.48L68.31 199.7" stroke="#263238" stroke-width="0.5" stroke-miterlimit="10"/>
<path d="M83.3 384.18L90.7 374.53" stroke="#263238" stroke-width="2" stroke-miterlimit="10"/>
<path d="M88.44 377.42C88.3101 376.072 88.4715 374.712 88.9132 373.432C89.3549 372.151 90.0666 370.981 91 370C92.93 367.87 103.67 362 105.15 365.81C106.78 370 96.16 379.68 88.44 377.42Z" fill="#E63462" stroke="#263238" stroke-miterlimit="10"/>
<path d="M88.44 377.42L99.03 369.23" stroke="#263238" stroke-width="0.5" stroke-miterlimit="10"/>
<path d="M83.3 317.38L90.7 307.73" stroke="#263238" stroke-width="2" stroke-miterlimit="10"/>
<path d="M88.44 310.62C88.3177 309.274 88.4846 307.917 88.9295 306.641C89.3745 305.365 90.0873 304.198 91.02 303.22C92.95 301.09 103.69 295.22 105.17 299.04C106.78 303.22 96.16 312.87 88.44 310.62Z" fill="#E63462" stroke="#263238" stroke-miterlimit="10"/>
<path d="M88.44 310.62L99.03 302.42" stroke="#263238" stroke-width="0.5" stroke-miterlimit="10"/>
<path d="M83.3 284.41L90.7 274.76" stroke="#263238" stroke-width="2" stroke-miterlimit="10"/>
<path d="M88.44 277.65C88.3177 276.304 88.4846 274.947 88.9295 273.671C89.3745 272.395 90.0873 271.228 91.02 270.25C92.95 268.12 103.69 262.25 105.17 266.07C106.78 270.25 96.16 279.9 88.44 277.65Z" fill="#E63462" stroke="#263238" stroke-miterlimit="10"/>
<path d="M88.44 277.65L99.03 269.45" stroke="#263238" stroke-width="0.5" stroke-miterlimit="10"/>
<path d="M83.3 240.83L90.7 231.18" stroke="#263238" stroke-width="2" stroke-miterlimit="10"/>
<path d="M88.44 234.07C88.3177 232.724 88.4846 231.367 88.9295 230.091C89.3745 228.815 90.0873 227.648 91.02 226.67C92.95 224.54 103.69 218.67 105.17 222.49C106.78 226.67 96.16 236.32 88.44 234.07Z" fill="#E63462" stroke="#263238" stroke-miterlimit="10"/>
<path d="M88.44 234.07L99.03 225.87" stroke="#263238" stroke-width="0.5" stroke-miterlimit="10"/>
<path d="M83.3 206.57L90.7 196.91" stroke="#263238" stroke-width="2" stroke-miterlimit="10"/>
<path d="M88.44 199.81C88.3177 198.464 88.4846 197.107 88.9295 195.831C89.3745 194.555 90.0873 193.388 91.02 192.41C92.95 190.28 103.69 184.41 105.17 188.23C106.78 192.41 96.16 202.06 88.44 199.81Z" fill="#E63462" stroke="#263238" stroke-miterlimit="10"/>
<path d="M88.44 199.81L99.03 191.61" stroke="#263238" stroke-width="0.5" stroke-miterlimit="10"/>
<path d="M82.85 184.61C82.7277 183.264 82.8946 181.907 83.3396 180.631C83.7845 179.355 84.4973 178.188 85.43 177.21C87.36 175.09 98.1 169.21 99.58 173.03C101.19 177.21 90.57 186.87 82.85 184.61Z" fill="#E63462" stroke="#263238" stroke-miterlimit="10"/>
<path d="M82.85 184.61L93.44 176.41" stroke="#263238" stroke-width="0.5" stroke-miterlimit="10"/>
<path d="M83.37 185.07C82.018 185.054 80.6852 184.747 79.462 184.171C78.2388 183.594 77.1536 182.762 76.28 181.73C74.37 179.59 69.63 168.29 73.61 167.22C77.93 166.06 86.42 177.63 83.37 185.07Z" fill="#E63462" stroke="#263238" stroke-miterlimit="10"/>
<path d="M83.37 185.07L76.33 173.68" stroke="#263238" stroke-width="0.5" stroke-miterlimit="10"/>
<path d="M92.48 462.93H68.81L65.85 403.15H95.44L92.48 462.93Z" fill="#263238" stroke="#263238" stroke-miterlimit="10"/>
<path d="M306.35 220H379.33L362.33 282.62H289.35L306.35 220Z" fill="#7D7D7D" stroke="#263238" stroke-linecap="round" stroke-linejoin="round"/>
<path d="M308.43 222.33H375.98L360.25 280.29H292.7L308.43 222.33Z" fill="white" stroke="#263238" stroke-linecap="round" stroke-linejoin="round"/>
<path d="M362.33 279.3H260.01V282.63H362.33V279.3Z" fill="#7D7D7D" stroke="#263238" stroke-linecap="round" stroke-linejoin="round"/>
<path d="M362.33 279.3H315.31V282.63H362.33V279.3Z" fill="#595959" stroke="#263238" stroke-linecap="round" stroke-linejoin="round"/>
<path d="M232.78 287.93H227.28V462.54H232.78V287.93Z" fill="white" stroke="#263238" stroke-linecap="round" stroke-linejoin="round"/>
<path d="M222.58 462.54H227.28L227.28 287.93H222.58L222.58 462.54Z" fill="#A8A8A8" stroke="#263238" stroke-linecap="round" stroke-linejoin="round"/>
<path d="M373.68 379.29H368.18V462.54H373.68V379.29Z" fill="white" stroke="#263238" stroke-linecap="round" stroke-linejoin="round"/>
<path d="M363.48 462.55H368.18V379.3H363.48V462.55Z" fill="#A8A8A8" stroke="#263238" stroke-linecap="round" stroke-linejoin="round"/>
<path d="M432.57 379.29H427.07V462.54H432.57V379.29Z" fill="white" stroke="#263238" stroke-linecap="round" stroke-linejoin="round"/>
<path d="M422.37 462.55H427.07V379.3H422.37V462.55Z" fill="#A8A8A8" stroke="#263238" stroke-linecap="round" stroke-linejoin="round"/>
<path d="M313.66 384.04H367.32V289.62H313.66V384.04Z" fill="#A8A8A8" stroke="#263238" stroke-linecap="round" stroke-linejoin="round"/>
<path d="M438.03 289.63H367.32V384.05H438.03V289.63Z" fill="white" stroke="#263238" stroke-linecap="round" stroke-linejoin="round"/>
<path d="M367.32 289.63H313.67V294.23H367.32H438.03V289.63H367.32Z" fill="#263238" stroke="#263238" stroke-linecap="round" stroke-linejoin="round"/>
<path d="M363.99 295.04H318.24V317.08H363.99V295.04Z" fill="white" stroke="#263238" stroke-linecap="round" stroke-linejoin="round"/>
<path d="M347.15 303.98H335.09V308.14H347.15V303.98Z" fill="#263238"/>
<path d="M363.99 325.4H318.24V347.44H363.99V325.4Z" fill="white" stroke="#263238" stroke-linecap="round" stroke-linejoin="round"/>
<path d="M347.15 333.93H335.09V338.09H347.15V333.93Z" fill="#263238"/>
<path d="M363.99 355.76H318.24V377.8H363.99V355.76Z" fill="white" stroke="#263238" stroke-linecap="round" stroke-linejoin="round"/>
<path d="M347.15 363.87H335.09V368.03H347.15V363.87Z" fill="#263238"/>
<path d="M445.33 285.48H215V290.97H445.33V285.48Z" fill="#A8A8A8" stroke="#263238" stroke-linecap="round" stroke-linejoin="round"/>
<path d="M445.33 285.48H375.78V290.97H445.33V285.48Z" fill="white" stroke="#263238" stroke-linecap="round" stroke-linejoin="round"/>
<path d="M234.53 341.36C234.53 341.36 241.39 346.11 251.53 375.47C254.91 385.23 273.92 437.86 274.92 441.47C275.92 445.08 277.92 449.47 280.92 449.47C283.92 449.47 294.92 435.47 293.58 433.81C292.24 432.15 285.92 425.47 285.92 425.47C285.92 425.47 282.14 382.87 281.47 370.87C280.8 358.87 283.53 344.42 277.2 334.75C270.87 325.08 242.86 335.08 242.86 335.08L234.53 341.36Z" fill="white" stroke="#263238" stroke-linecap="round" stroke-linejoin="round"/>
<path d="M289 425.52C288.227 425.934 287.594 426.567 287.177 427.338C286.761 428.11 286.581 428.987 286.66 429.86C287 432.86 290 436.86 290 436.86C290 436.86 283.66 441.86 280.33 442.19C277 442.52 273.33 443.19 273.33 444.19C273.33 445.19 276 446.86 277.66 450.52C279.499 454.233 281.618 457.8 284 461.19C285 462.52 285.66 463.52 289.33 462.52C293 461.52 301 454.19 305.33 451.19C309.66 448.19 322.66 446.19 325 444.52C327.34 442.85 334.66 432.19 331.33 430.19C328 428.19 327 430.52 323 431.52C319 432.52 307.33 431.19 301 429.86C294.67 428.53 292.66 428.19 292.66 428.19L289 425.52Z" fill="#E63462" stroke="#263238" stroke-linecap="round" stroke-linejoin="round"/>
<path d="M283.42 460.43C283.64 460.75 283.82 461.01 283.96 461.19C284.96 462.52 285.62 463.52 289.29 462.52C292.96 461.52 300.96 454.19 305.29 451.19C309.62 448.19 322.62 446.19 324.96 444.52C327.3 442.85 334.62 432.19 331.29 430.19C330.822 429.897 330.313 429.674 329.78 429.53C329.84 429.75 329.9 429.95 329.96 430.19C330.96 434.19 327.62 438.19 324.62 441.19C321.62 444.19 311.62 443.52 300.62 449.19C294.542 452.38 288.782 456.144 283.42 460.43Z" fill="white" stroke="#263238" stroke-linecap="round" stroke-linejoin="round"/>
<path d="M283.1 392.17C282.38 383.4 281.75 375.17 281.51 370.92C280.84 358.92 283.57 344.47 277.24 334.8C270.91 325.13 242.9 335.13 242.9 335.13L234.53 341.36C234.53 341.36 241.39 346.11 251.53 375.47C252.82 379.2 256.4 389.21 260.39 400.34L283.1 392.17Z" fill="#263238" stroke="#263238" stroke-linecap="round" stroke-linejoin="round"/>
<path d="M208 303.67C208 303.67 229.33 302.67 260.33 307.67C291.33 312.67 302.93 318 302 324C298.22 348.34 241.39 428.47 241.39 428.47L242.39 439.8C242.39 439.8 240.39 442.47 233.39 442.8C226.39 443.13 217.72 433.14 217.72 433.14C217.72 433.14 225.55 425.04 228.55 415.38C231.55 405.72 255.67 343.33 255.67 343.33C255.67 343.33 224 350.33 189 344C154 337.67 208 303.67 208 303.67Z" fill="white" stroke="#263238" stroke-linecap="round" stroke-linejoin="round"/>
<path d="M260.33 307.67C229.33 302.67 208 303.67 208 303.67C208 303.67 154 337.67 189 344C224 350.33 255.67 343.33 255.67 343.33C255.67 343.33 245.67 369.33 237.67 390.33L261.18 399.33C278 373.89 299.71 338.73 302 324C302.93 318 291.33 312.67 260.33 307.67Z" fill="#263238" stroke="#263238" stroke-linecap="round" stroke-linejoin="round"/>
<path d="M241.39 428.47C240.717 428.747 240.105 429.155 239.59 429.67C239.075 430.185 238.667 430.797 238.39 431.47C237.747 432.994 237.19 434.554 236.72 436.14C233.072 435.355 229.504 434.237 226.06 432.8C223.522 431.641 221.07 430.304 218.72 428.8C218.72 428.8 215.72 429.14 215.72 431.14C215.703 434.215 215.141 437.262 214.06 440.14C213.2 442.28 211.37 447.05 210.18 450.14C210.042 450.505 209.983 450.895 210.009 451.284C210.034 451.673 210.143 452.052 210.328 452.395C210.513 452.739 210.77 453.038 211.081 453.274C211.392 453.509 211.749 453.675 212.13 453.76C217.41 454.93 228.54 457.5 238.06 460.43C251.06 464.43 265.39 462.43 267.06 462.1C268.73 461.77 275.39 457.76 272.39 455.1C269.39 452.44 251.72 445.43 248.06 440.76C244.4 436.09 241.39 428.47 241.39 428.47Z" fill="#E63462" stroke="#263238" stroke-linecap="round" stroke-linejoin="round"/>
<path d="M271.05 454.2C271.05 457.51 269.35 460.8 264.05 460.8C258.75 460.8 249.38 460.14 236.05 454.8C228.006 451.647 219.74 449.093 211.32 447.16C210.91 448.23 210.51 449.27 210.17 450.16C210.032 450.525 209.973 450.915 209.999 451.304C210.024 451.693 210.133 452.072 210.318 452.415C210.503 452.759 210.76 453.058 211.071 453.294C211.382 453.529 211.739 453.695 212.12 453.78C217.4 454.95 228.53 457.52 238.05 460.45C251.05 464.45 265.38 462.45 267.05 462.12C268.72 461.79 275.38 457.78 272.38 455.12C271.964 454.775 271.519 454.467 271.05 454.2Z" fill="white" stroke="#263238" stroke-linecap="round" stroke-linejoin="round"/>
<path d="M140.66 226C140.66 226 137.03 254.74 137.34 260.18C137.65 265.62 141.57 312.5 142.48 322.79C143.39 333.08 147.62 342.14 155.18 343.96C162.74 345.78 182.4 348.49 190.87 346.38C199.34 344.27 208.41 325.21 211.43 317.95C214.45 310.69 216.58 306.15 215.67 304.64C214.76 303.13 210.83 299.8 210.83 299.8C210.83 299.8 203.27 244.8 201.45 230.54C199.63 216.28 200.55 215.12 193.89 209.67C187.23 204.22 152.76 199.71 140.66 226Z" fill="#E63462" stroke="#263238" stroke-linecap="round" stroke-linejoin="round"/>
<path d="M189.06 326.31C187.97 327.14 186.83 327.93 185.67 328.67" stroke="#263238" stroke-linecap="round" stroke-linejoin="round"/>
<path d="M209 302C209 302 202.58 314.6 191.95 323.94" stroke="#263238" stroke-linecap="round" stroke-linejoin="round"/>
<path d="M204.33 302.67C204.33 302.67 194 312.33 183.67 318.33" stroke="#263238" stroke-linecap="round" stroke-linejoin="round"/>
<path d="M212.64 135.59C214.303 139.084 215.623 142.731 216.58 146.48C217.48 151.02 217.79 155.25 219.9 156.16C222.01 157.07 225.9 157.37 225.35 159.79C224.8 162.21 220.81 166.14 220.81 166.14C220.81 166.14 221.72 180.66 221.41 183.38C221.1 186.1 205.08 186.1 204.18 186.1C203.28 186.1 194.18 207.58 194.18 207.58L168.78 194.87L173.62 179.15C173.62 179.15 165.76 164.02 165.15 157.37C164.54 150.72 180 138.62 188.75 135.9C197.5 133.18 212.64 135.59 212.64 135.59Z" fill="white" stroke="#263238" stroke-linecap="round" stroke-linejoin="round"/>
<path d="M204.18 186.1L196.11 183.8L199.13 195.61L204.18 186.1Z" fill="#263238" stroke="#263238" stroke-linecap="round" stroke-linejoin="round"/>
<path d="M215.64 152.7C216.04 154.41 215.85 155.92 215.2 156.07C214.55 156.22 213.69 154.97 213.28 153.27C212.87 151.57 213.07 150.05 213.72 149.9C214.37 149.75 215.23 151 215.64 152.7Z" fill="#263238"/>
<path d="M210.53 168.86C210.53 168.86 214.16 171.59 217.48 170.38" stroke="#263238" stroke-linecap="round" stroke-linejoin="round"/>
<path d="M211.13 129.85C211.13 129.85 215.37 137.41 212.34 142.25C209.31 147.09 202.06 149.2 198.13 153.74C194.2 158.28 192.13 166.14 190.57 166.74C189.01 167.34 184.57 158.27 181.79 158.87C179.01 159.47 174.54 165.87 178.47 172.48C179.552 174.373 181.151 175.919 183.08 176.937C185.008 177.955 187.186 178.404 189.36 178.23C189.36 178.23 178.47 183.98 176.36 183.98C174.25 183.98 167.89 180.35 164.87 176.98C161.85 173.61 151 163.72 150.34 155.56C149.68 147.4 160.62 137.11 160.62 137.11C160.62 137.11 147.62 136.2 150.95 131.36C154.28 126.52 166.07 123.5 166.07 123.5C166.07 123.5 163.95 115.94 166.98 114.42C170.01 112.9 188.45 119 188.45 119C188.45 119 183.31 112.35 190.57 112C197.83 111.65 210.22 120.77 211.13 129.85Z" fill="#263238" stroke="#263238" stroke-linecap="round" stroke-linejoin="round"/>
<path d="M187.06 162.69L225.65 147.09" stroke="#263238" stroke-linecap="round" stroke-linejoin="round"/>
<path d="M215.59 144.9C217.196 144.204 219.008 144.152 220.65 144.757C222.292 145.361 223.639 146.574 224.411 148.145C225.183 149.715 225.32 151.523 224.795 153.192C224.27 154.861 223.122 156.264 221.59 157.11" stroke="#263238" stroke-linecap="round" stroke-linejoin="round"/>
<path d="M201.45 216C201.45 216 201.15 207.23 198.73 204.81C196.31 202.39 178.47 192.41 170.3 190.3C162.13 188.19 153.67 191.2 148.22 193.02C142.77 194.84 139.15 200 137 211.21C134.85 222.42 134.58 229.35 139.12 229.96C143.66 230.57 150.01 216.96 164.22 214.23C178.43 211.5 191.44 213.93 194.47 215.44C197.5 216.95 201.45 216 201.45 216Z" fill="#E63462" stroke="#263238" stroke-linecap="round" stroke-linejoin="round"/>
<path d="M155.52 206.76C152.79 207.76 150.95 208.48 150.95 208.48" stroke="#263238" stroke-linecap="round" stroke-linejoin="round"/>
<path d="M201.45 216C201.45 216 182.45 205.42 175.45 203.3C171.82 202.2 165.3 203.65 159.9 205.3" stroke="#263238" stroke-linecap="round" stroke-linejoin="round"/>
<path d="M291.26 265.2C291.26 265.2 290.26 271.49 289.11 272.2C287.96 272.91 288.03 266.36 288.03 266.36C288.03 266.36 286.59 270.13 285.7 271.03C284.81 271.93 285.34 267.17 285.34 267.17L286.34 262.68L291.26 265.2Z" fill="white" stroke="#263238" stroke-linecap="round" stroke-linejoin="round"/>
<path d="M278.46 259L287.74 259.15C287.74 259.15 290.19 259.5 290.54 260.9C291.037 262.449 291.621 263.968 292.29 265.45L277.93 261.25L278.46 259Z" fill="white" stroke="#263238" stroke-linecap="round" stroke-linejoin="round"/>
<path d="M281.78 261.93C281.78 261.93 294.78 260.18 295.09 261.23C295.35 262.02 296.35 269.14 296.57 271.44C296.574 271.519 296.554 271.597 296.511 271.663C296.468 271.729 296.405 271.779 296.332 271.807C296.258 271.835 296.178 271.839 296.102 271.818C296.026 271.796 295.959 271.752 295.91 271.69L292.29 265.43L282.48 266.13C282.48 266.13 279.68 263.68 281.78 261.93Z" fill="white" stroke="#263238" stroke-linecap="round" stroke-linejoin="round"/>
<path d="M174.31 222.72C174.31 222.72 166.25 228.67 169.05 243.38C171.85 258.09 191.46 298.38 193.21 301.84C194.96 305.3 202.66 305.69 206.16 304.64C209.66 303.59 272 278.74 272 278.74C272 278.74 278.65 276.98 279.7 275.58C280.75 274.18 287.41 266.83 287.41 266.83C287.41 266.83 297.91 268.23 300.36 267.53C302.81 266.83 297.91 266.13 295.46 265.43C293.57 264.89 283.15 260.82 278.46 258.98C277.784 258.707 277.043 258.643 276.33 258.794C275.618 258.946 274.966 259.306 274.46 259.83C271.18 263.19 264.19 270.32 262.86 271.38C261.11 272.78 211.75 281.19 211.75 281.19C211.75 281.19 200.19 226.92 195.64 222.37C191.09 217.82 183.04 218.87 183.04 218.87" fill="#E63462"/>
<path d="M174.31 222.72C174.31 222.72 166.25 228.67 169.05 243.38C171.85 258.09 191.46 298.38 193.21 301.84C194.96 305.3 202.66 305.69 206.16 304.64C209.66 303.59 272 278.74 272 278.74C272 278.74 278.65 276.98 279.7 275.58C280.75 274.18 287.41 266.83 287.41 266.83C287.41 266.83 297.91 268.23 300.36 267.53C302.81 266.83 297.91 266.13 295.46 265.43C293.57 264.89 283.15 260.82 278.46 258.98C277.784 258.707 277.043 258.643 276.33 258.794C275.618 258.946 274.966 259.306 274.46 259.83C271.18 263.19 264.19 270.32 262.86 271.38C261.11 272.78 211.75 281.19 211.75 281.19C211.75 281.19 200.19 226.92 195.64 222.37C191.09 217.82 183.04 218.87 183.04 218.87" stroke="#263238" stroke-linecap="round" stroke-linejoin="round"/>
<path d="M239.42 291.68C255.77 285.2 272 278.74 272 278.74C272 278.74 278.65 276.98 279.7 275.58C280.75 274.18 287.4 266.83 287.4 266.83C287.4 266.83 297.91 268.23 300.4 267.53C302.89 266.83 297.95 266.13 295.5 265.43C293.61 264.89 283.19 260.82 278.5 258.98C277.824 258.708 277.083 258.643 276.37 258.794C275.658 258.946 275.006 259.306 274.5 259.83C271.22 263.19 264.23 270.32 262.9 271.38C261.99 272.11 248.2 274.73 235.17 277.08L239.42 291.68Z" fill="white" stroke="#263238" stroke-linecap="round" stroke-linejoin="round"/>
<path d="M130 360.58L114.75 461.92C114.696 462.133 114.728 462.36 114.841 462.549C114.953 462.739 115.136 462.876 115.35 462.93C115.563 462.984 115.79 462.952 115.979 462.839C116.169 462.727 116.306 462.543 116.36 462.33L139.36 362.25L130 360.58Z" fill="#9C9C9C" stroke="#263238" stroke-linecap="round" stroke-linejoin="round"/>
<path d="M152.76 361.25L159.39 461.73C159.39 461.95 159.477 462.161 159.633 462.317C159.789 462.473 160 462.56 160.22 462.56C160.44 462.56 160.651 462.473 160.807 462.317C160.963 462.161 161.05 461.95 161.05 461.73L162.2 360.44L152.76 361.25Z" fill="#9C9C9C" stroke="#263238" stroke-linecap="round" stroke-linejoin="round"/>
<path d="M175.13 362.76L193.33 461.5C193.384 461.698 193.508 461.869 193.68 461.98C193.852 462.091 194.06 462.135 194.262 462.103C194.464 462.07 194.647 461.964 194.776 461.805C194.905 461.646 194.971 461.445 194.96 461.24L184.36 360.61L175.13 362.76Z" fill="#9C9C9C" stroke="#263238" stroke-linecap="round" stroke-linejoin="round"/>
<path d="M210.31 361.93L225.2 461.33C225.245 461.53 225.362 461.707 225.529 461.826C225.696 461.945 225.902 461.997 226.106 461.974C226.309 461.95 226.497 461.852 226.633 461.698C226.768 461.544 226.842 461.345 226.84 461.14L219.62 360.14L210.31 361.93Z" fill="#9C9C9C" stroke="#263238" stroke-linecap="round" stroke-linejoin="round"/>
<path d="M196.08 341.7C196.08 341.7 178.57 335.86 170.4 314.86C162.23 293.86 148.82 257.68 139.48 253C130.14 248.32 112.06 257.08 110.89 290.92C109.72 324.76 112.46 349.92 120 358.24C126.67 365.57 138 374.91 177.33 375.57C212.46 376.17 226.8 362.78 231.67 358.24C236.54 353.7 244.5 344 238.09 344C231.68 344 204.25 344 196.08 341.7Z" fill="white" stroke="#263238" stroke-linecap="round" stroke-linejoin="round"/>
<path d="M276.93 134C276.93 134 270.1 126 260.61 124.51C251.12 123.02 250.48 136.86 262.61 142.93C266.012 144.495 269.783 145.084 273.5 144.63C273.5 144.63 263.81 156.08 270.08 157.91C284.08 162.03 281.08 140.45 281.08 140.45L276.93 134Z" fill="white" stroke="#263238" stroke-linecap="round" stroke-linejoin="round"/>
<path d="M279.23 133.45C279.23 133.45 275.23 123.74 278.23 114.6C281.23 105.46 293.12 111.67 293 125.24C292.954 128.751 292.015 132.193 290.27 135.24C290.27 135.24 305.53 131.99 303.65 138.24C299.38 152.45 283.09 140.09 283.09 140.09L279.23 133.45Z" fill="white" stroke="#263238" stroke-linecap="round" stroke-linejoin="round"/>
<path d="M284.53 145.58C284.356 145.58 284.186 145.535 284.035 145.449C283.884 145.363 283.759 145.239 283.67 145.09L274.18 129.15C274.044 128.923 274.003 128.652 274.067 128.395C274.131 128.138 274.294 127.917 274.52 127.78C274.633 127.711 274.759 127.666 274.89 127.647C275.021 127.627 275.155 127.634 275.283 127.666C275.412 127.699 275.532 127.757 275.638 127.836C275.744 127.916 275.833 128.016 275.9 128.13L285.38 144.07C285.516 144.297 285.557 144.568 285.493 144.825C285.429 145.082 285.266 145.303 285.04 145.44C284.885 145.529 284.709 145.577 284.53 145.58Z" fill="#263238"/>
<path d="M275.8 130.54C275.8 130.54 272.38 123.33 266.31 122.54" stroke="#263238" stroke-linecap="round" stroke-linejoin="round"/>
<path d="M275.9 128.13C275.9 128.13 273.9 122.19 275.42 118.39" stroke="#263238" stroke-linecap="round" stroke-linejoin="round"/>
<path d="M269.85 134.87C269.49 136.63 266.85 137.59 263.99 137.01C261.13 136.43 259.06 134.52 259.42 132.76C259.78 131 262.42 130.03 265.28 130.62C268.14 131.21 270.21 133.1 269.85 134.87Z" fill="#E63462" stroke="#263238" stroke-linecap="round" stroke-linejoin="round"/>
<path d="M277 147.27C278 147.94 278 149.82 276.87 151.49C275.74 153.16 274 154 273 153.28C272 152.56 272 150.73 273.13 149.06C274.26 147.39 275.93 146.6 277 147.27Z" fill="#E63462" stroke="#263238" stroke-linecap="round" stroke-linejoin="round"/>
<path d="M297.79 138.9C297.79 140.12 296.21 141.13 294.22 141.16C292.23 141.19 290.61 140.22 290.59 139C290.57 137.78 292.17 136.77 294.16 136.74C296.15 136.71 297.77 137.69 297.79 138.9Z" fill="#E63462" stroke="#263238" stroke-linecap="round" stroke-linejoin="round"/>
<path d="M285.47 128.46C283.68 128.66 281.96 126.46 281.64 123.53C281.32 120.6 282.51 118.09 284.3 117.89C286.09 117.69 287.8 119.89 288.12 122.82C288.44 125.75 287.26 128.26 285.47 128.46Z" fill="#E63462" stroke="#263238" stroke-linecap="round" stroke-linejoin="round"/>
<path d="M24.15 462.93H489.94" stroke="#263238" stroke-linecap="round" stroke-linejoin="round"/>
</svg>
