<svg width="117" height="117" viewBox="0 0 117 117" fill="none" xmlns="http://www.w3.org/2000/svg">
<path d="M115.339 24.4871C113.138 22.2854 94.5435 3.69141 92.3614 1.50937C87.762 -3.09115 80.7944 3.86645 85.3992 8.47153L88.1913 11.2636L74.7649 24.6895L63.1228 13.0476C58.5234 8.44711 51.5558 15.4047 56.1606 20.0098L61.5293 25.3785L55.0286 31.8792L66.1682 43.0188C70.7676 47.6181 63.8116 54.5874 59.206 49.9809L48.0664 38.8414L44.1211 42.7867L55.2607 53.9262C59.8599 58.5254 52.9041 65.4948 48.2985 60.8884L37.159 49.7488L33.2139 53.6941L44.3535 64.8337C48.9526 69.4328 41.9968 76.4023 37.3913 71.7958L26.2517 60.6563L16.2699 70.6381C14.3473 72.5606 14.3473 75.6777 16.2699 77.6002L24.2778 85.6081L1.50887 108.377C-3.09029 112.976 3.8655 119.945 8.47105 115.339L31.2393 92.5707L39.2472 100.579C41.1695 102.501 44.2868 102.501 46.2094 100.579L91.4695 55.3188L96.8382 60.6875C101.4 65.25 108.464 58.3889 103.8 53.7254C102.34 52.2659 95.2411 45.1661 92.1583 42.0833L105.585 28.6569L108.377 31.449C112.976 36.0488 119.945 29.0933 115.339 24.4871ZM85.1963 35.1211C83.9409 33.8657 82.9826 32.9074 81.7271 31.6519L95.153 18.226L98.6223 21.6952L85.1963 35.1211Z" fill="#05D5B2"/>
</svg>
